<?xml version="1.0" encoding="utf-8"?>
<!-- Generator: Adobe Illustrator 22.1.0, SVG Export Plug-In . SVG Version: 6.00 Build 0)  -->
<svg version="1.1" id="Layer_1" xmlns="http://www.w3.org/2000/svg" xmlns:xlink="http://www.w3.org/1999/xlink" x="0px" y="0px"
	 viewBox="0 0 415.9 160" style="enable-background:new 0 0 415.9 160;" xml:space="preserve">
<style type="text/css">
	.st0{fill:#FFFFFF;}
</style>
<g>
	<path class="st0" d="M368.2,138.8c-0.1,0.2-0.1,0.3-0.2,0.5c-0.1,0.4-0.4,0.5-0.6,0.7c-1.2,0.5-2.3,1-3.6,1.3
		c-0.4,0.1-0.7,0.1-1.1,0c-0.6-0.1-0.9-0.5-0.9-1c0-0.7,0.1-1.4,0.2-2.1c0.2-1.2,0.5-2.3,0.8-3.4c0.2-0.8,0.2-1.6,0.5-2.4
		c0.3-0.9,0.6-1.7,0.9-2.5c0.2-0.6,0.5-1.2,0.6-1.8c0-0.1,0-0.2,0-0.3c0-2,0-4-0.4-5.9c0-0.1-0.1-0.2-0.1-0.4
		c-0.1,0.3-0.2,0.5-0.3,0.7c-0.2,0.5-0.4,1.1-0.6,1.5c-0.3,0.5-0.4,1.2-0.5,1.7c-0.2,1-0.2,2,0.1,3c0.2,0.5,0.4,1,0.4,1.5
		c0.1,0.4,0,0.7-0.1,1.1c-0.2,0.7-0.5,1.4-1.3,1.9c-0.8,0.5-1.7,0.9-2.6,1.4c-0.6,0.4-1.4,0.7-2.1,0.9c-0.5,0.1-1,0.3-1.4,0.2
		c-0.5,0-1.1-0.3-1.6-0.4c0-0.3-0.1-0.5-0.1-0.7c-0.2,0.1-0.5,0.1-0.6,0.2c-0.9,0.5-1.4-0.2-1.4-1.1c0-0.5,0.3-1,0.5-1.4
		c0.6-1,1.2-2,1.7-3c0.1-0.1,0.1-0.2,0.2-0.3c0.4-0.5,0.5-1,0.7-1.5c0.1-0.4,0.3-0.6,0.5-1c0.4-0.9,0.8-1.9,1.2-2.8c0,0,0,0,0-0.1
		c0.6-1.3,0.4-2.6,0.2-3.9c-0.1-0.6-0.1-1.4-0.2-2c-0.1-0.5-0.1-1.1-0.2-1.7c0-0.4-0.1-0.6,0-1c0-1.1,0.1-2.2,0.1-3.2
		c0-1.2,0-2.3,0.1-3.5c0.2-1.6,0.1-3.2-0.1-4.8c-0.1-0.9-0.2-1.7-0.4-2.6c0-0.3-0.1-0.5-0.3-0.6c-0.4-0.3-0.7-0.6-1.1-1
		c-0.5-0.5-1.2-0.5-1.8-0.4c-0.5,0-1.2,0.2-1.6,0.4c-0.8,0.4-1.6,0.8-2.4,1.3c-0.8,0.5-1.4,1.1-1.5,2c-0.2,0.7-0.3,1.4-0.3,2.1
		c0,2.2,0,4.3-0.5,6.4c-0.3,0.8-0.5,1.6-0.8,2.4c-0.6,1.4-1,2.8-1.4,4.1c-0.1,0.5-0.2,0.9-0.4,1.3c-0.5,1.7-0.6,3.5-0.5,5.3
		c0,1.1,0.4,2.1,0.5,3.2c0.1,0.3,0.2,0.5,0.2,0.8c0.2,0.7,0.5,1.4,1,1.9c0.1,0.1,0.1,0.1,0.2,0.2c0.5,0.6,0.5,1,0.1,1.6
		c-0.4,0.7-0.8,1.4-1.3,2.1c-0.5,0.8-0.5,1.6-0.2,2.4c0.4,1,0.7,1.9,1.1,2.9c0.1,0.4,0.2,0.7,0.2,1.1c0,0.4-0.1,0.6-0.4,1
		c-1.1,1.4-2.6,2.3-4.1,3.2c-0.6,0.4-1.3,0.7-2,0.8c-0.4,0.1-0.6,0-0.8-0.3c-0.2-0.3-0.4-0.5-0.6-0.8c-0.2,0.2-0.4,0.2-0.5,0.4
		c-0.5,0.5-1.3,0.8-2.1,0.8c-0.1,0-0.2,0-0.3,0c-0.9,0.1-1.4-0.4-1.5-1.3c-0.1-0.6-0.1-1.2,0-1.8c0-0.6,0.2-1.2,0.5-1.7
		c0.2-0.3,0.3-0.7,0.3-1.1c0.1-1.3,0.5-2.5,1.1-3.6c0.4-0.5,0.5-1.3,0.7-1.9c0.5-1.7,0.8-3.5,1.2-5.2c0.2-0.8,0.2-1.6,0-2.4
		c-0.5-1.9-0.9-3.9-1.4-5.8c-0.4-1.4-0.5-2.8-0.4-4.2c0.1-1.7,0.6-3.4,1.1-5c0.3-1.3,0.7-2.6,0.7-4c0-0.9-0.2-1.9-0.3-2.8
		c0-0.2-0.1-0.5-0.1-0.6c0.1-0.9-0.2-1.7-0.7-2.4c-0.2-0.3-0.4-0.6-0.5-0.9c-0.1-0.2-0.3-0.4-0.5-0.4c-0.3,0-0.4,0.2-0.5,0.4
		c-0.1,0.2-0.3,0.5-0.4,0.6c-0.5,0.7-0.8,1.4-1.3,2.2c-0.1,0.2-0.3,0.4-0.4,0.6c-0.4,0.5-0.6,1.1-1,1.5c-0.2,0.3-0.4,0.5-0.6,0.6
		c-0.7,0.5-1.4,1-2.2,1.4c-1.1,0.5-2.1,0.2-3-0.5c-0.7-0.5-1.4-1.2-2-1.8c-0.5-0.5-1.3-0.8-2-1.2c-0.1,0.1-0.3,0.2-0.4,0.4
		c-0.7,0.9-1.3,1.9-1.6,3c-0.5,1.3-0.9,2.5-1.4,3.8c-0.4,1.4-0.5,2.8-0.6,4.2s-0.5,2.7-1.3,4c-1.1,1.5-1.9,3.2-2.5,5.1
		c-0.4,1.3-0.6,2.6-0.7,4c0,0.8-0.2,1.6-0.3,2.5c-0.1,1.4-0.1,2.7-0.1,4.1c0,2-0.4,3.9-1.9,5.4c-0.8,0.8-1.4,1.7-1.6,2.9
		c-0.2,0.8-0.5,1.5-0.4,2.4c0,0.2-0.1,0.5-0.3,0.6c-0.9,0.9-1.9,1.7-3.2,2.1c-0.8,0.2-1.6,0.5-2.4,0.6c-0.7,0.2-1.3-0.1-1.4-0.7
		c0-0.2-0.1-0.3-0.2-0.5c-0.4,0.2-0.5,0.5-0.7,0.7c-0.4,0.5-0.8,0.7-1.4,0.5c-0.3-0.1-0.5-0.3-0.7-0.4c-0.5-0.3-1-0.5-1.4-0.8
		c-0.5-0.3-0.5-0.5-0.4-1c0.1-0.4,0.3-0.7,0.5-1.1c0.8-1.7,1.8-3.3,3.2-4.7c0.1-0.1,0.2-0.2,0.2-0.3c0.6-1.2,1.2-2.4,1.8-3.6
		c0.5-1.1,1.2-2.1,1.6-3.2c0.3-0.7,0.5-1.4,0.7-2.2c0.4-1.1,0.7-2.1,1.1-3.2c0.3-0.9,0.5-1.8,0.6-2.8c0.2-2.1,0.3-4.1,0.3-6.2
		c0-1.1,0.2-2.2,0.3-3.2c0.1-0.7,0.4-1.4,0.5-2.2c0.1-0.3,0.2-0.5,0.2-0.8c0.2-0.5,0.2-1.1-0.1-1.7c-0.3-0.8-0.6-1.6-0.7-2.4
		c-0.1-0.8-0.1-1.7-0.1-2.5c0-0.2,0-0.5,0-0.6c0.1-1.8,0.2-3.6,0.2-5.4c0-0.9-0.1-1.9-0.3-2.8c-0.2-0.6-0.2-1.3-0.3-1.9
		c-0.1-0.5-0.1-1.1-0.1-1.6s0.1-1.1,0.1-1.6c0-1-0.1-1.9-0.2-2.9c-0.1-0.8-0.1-1.5-0.2-2.3c-0.1-1.6,0.3-3.2,0.6-4.9
		c0.2-0.7,0.1-1.4-0.1-2.1c-0.5-1.4-0.8-2.9-1.2-4.3c-0.3-1-0.4-2-0.5-3c-0.1-0.7-0.1-1.5-0.1-2.3c0-0.5,0-1.2,0-1.7
		c0-0.2,0-0.3,0-0.5c0.4-1.3,0.3-2.5,0.5-3.7c0.4-1.8,0.7-3.6,1.5-5.3c0.3-0.6,0.5-1.2,0.8-1.8c0.5-0.9,0.9-1.8,1.4-2.7
		c0.8-1.3,1.5-2.5,2.4-3.8c0.8-1.1,1.6-2.2,2.5-3.2c0.2-0.2,0.3-0.4,0.2-0.6c-0.2-0.7-0.4-1.5-0.5-2.3c-0.3-1.1-0.4-2.1-0.1-3.2
		c0.1-0.4,0.1-0.7,0.2-1.1c0-0.1,0-0.3,0-0.4c-1,0.5-1.9,1-2.9,1.6c-2.3,1.4-4.7,1.8-7.3,1.5c-0.1,0-0.2,0-0.3,0
		c-1,0-1.9-0.4-2.7-0.9c-0.8-0.5-1.5-1.3-2.3-2c-0.6-0.6-1.3-1.4-2-1.8c-0.4-0.2-0.7-0.5-1.2-0.4c-0.2,0-0.4,0-0.5-0.1
		c-0.2-0.5,0.2-0.6,0.5-0.9c0.7-0.8,1.7-1.4,2.6-2c1.1-0.6,2.2-1.4,3.3-2c0.9-0.5,1.8-0.9,2.8-1.2c0.4-0.1,0.8-0.3,1.2-0.4
		c-0.2-0.1-0.3-0.3-0.4-0.3c-2.1-1.2-3.8-3-5.4-4.7c-1.4-1.4-2.3-3.2-3.3-4.9c-0.7-1.3-1.1-2.7-1.4-4.1c-0.3-1.2-0.5-2.4-0.8-3.6
		c-0.1-0.7-0.4-1.4-0.1-2.1c0.1-0.2,0.1-0.4,0.2-0.5c0.3-0.5,0.6-0.5,1-0.1c0.2,0.3,0.4,0.6,0.5,0.9c0.5,1.5,1.2,3,1.9,4.3
		c0.3,0.5,0.6,1.2,1,1.7c0.6,0.8,1.3,1.7,2.1,2.3c0.5,0.5,1.1,1,1.6,1.4c1.3,0.9,2.5,1.9,4.1,2.3c0.8,0.3,1.5,0.5,2.3,0.8
		c1.7,0.5,3.5,0.8,5.3,0.7c0.5,0,0.7-0.1,1-0.5c0.3-0.5,0.6-0.9,1.3-0.9c0.1-0.6,0.5-0.8,1-0.9c0.3,0,0.5-0.2,0.6-0.4
		c0.5-0.6,1.1-0.9,1.9-0.6c0.3,0.1,0.5,0.1,0.8,0.1c0.3-0.2,0.5-0.4,0.9-0.5l0.1-0.1c0.5-0.1,1.1-0.2,1.6-0.2c0.1,0,0.4,0.2,0.4,0.3
		c0,0.4,0.4,0.5,0.6,0.7c0.2-0.1,0.4-0.2,0.5-0.4c0.6-0.7,1.4-0.8,2.2-0.5c0.1,0,0.3,0.1,0.4,0.1c0.5,0.3,0.9,0.2,1.4-0.3
		c0.4-0.4,0.9-0.5,1.4-0.7c0.3-0.1,0.6,0.2,1.1,0.3c0.7-0.5,1.5-0.5,2.3,0.2c0.6-0.5,1.2-0.3,1.6,0.1c0.2,0.1,0.4,0.3,0.5,0.3
		c0.7,0.2,1.3,0.4,1.8,0.9c0.4,0.4,0.7,0.5,1.3,0.5c0.3,0,0.5,0.2,0.7,0.4c0.5,0.5,1.1,1.1,1.4,1.7c0.4,0.5,0.7,0.5,1.2,0.3
		c1.1-0.4,2.3-0.6,3.2-1c0.9-0.4,1.8-0.7,2.7-1.2c0.6-0.3,1.3-0.7,1.9-1.1c0.3-0.2,0.5-0.4,0.7-0.5c0.7-0.6,1.4-1.2,2-1.8
		c0.2-0.2,0.4-0.4,0.5-0.5c1.3-1.6,2.3-3.3,3.3-5.1c0.6-1.1,1.2-2.2,1.8-3.2c0.2-0.3,0.4-0.5,0.5-0.7c0.3-0.3,0.6-0.2,0.7,0.2
		c0.1,0.3,0,0.5,0.1,0.7c0.3,2.1,0.1,4.1-0.6,6.1c-0.3,0.6-0.5,1.4-0.7,2c-0.7,1.6-1.5,3.2-2.9,4.4c-0.5,0.5-1.1,1.1-1.6,1.7
		c-0.6,0.7-1.2,1.4-1.9,2.1c-0.7,0.6-1.5,1.1-2.3,1.6c-0.5,0.4-1,0.6-1.5,1c-0.2,0.1-0.3,0.3-0.5,0.5c0.8,0.1,1.5,0.2,2.2,0.3
		c1.9,0.4,3.6,1.2,5,2.4c0.9,0.8,2.1,1.4,3.2,1.8c0.2,0.1,0.5,0,0.5,0.4c0,0.4-0.3,0.4-0.5,0.5c-1.2,0.4-1.9,1.2-2.6,2.2
		c0.5,0,1.1,0.1,1.5,0c2.6-0.4,5.1-1.2,7.7-2c0.1,0,0.3-0.1,0.4-0.1c0.7-0.2,1.4-0.4,2.2-0.6c0.7-0.3,1.5-0.3,2.3-0.4
		c1.4-0.1,2.7,0,4.1,0c1.4,0,2.7,0.3,4,0.6c0.2,0.1,0.5,0.2,0.5,0.3c0.3,0.4,0.6,0.5,1,0.7c1.1,0.7,2.2,1.4,2.8,2.5
		c0.4,0.6,0.9,1.3,1.4,1.9c0.1,0.2,0.3,0.4,0.4,0.6c0.5,1.6,1.1,3.2,1.5,4.8c0.4,1.2,0.6,2.3,0.9,3.5c0.4,1.3,0.7,2.5,1,3.8
		c0.5,2.1,0.6,4.2,0.5,6.4c-0.1,1.2-0.4,2.3-0.6,3.5c-0.2,1-0.2,1.9-0.2,2.9c0,0.7,0,1.4,0,2.2c-0.1,1.7-0.5,3.3-0.8,5
		c-0.3,1.4-0.9,2.6-1.4,3.9c-0.4,1.1-0.6,2.1-1,3.2c-0.2,0.5-0.3,1-0.4,1.4c-0.6,2-0.9,4-1.3,6c-0.2,1.3-0.5,2.5-0.7,3.8
		c-0.2,1-0.2,2,0.1,2.9c0.2,0.5,0.3,1.2,0.4,1.8c0.5,2.1,1.1,4.1,1.6,6.1c0.5,1.6,0.8,3.3,1.2,5c0.2,0.8,0.4,1.6,0.5,2.4
		c0.4,1.4,0.5,2.9,0.2,4.4c-0.2,0.9-0.3,1.9-0.5,2.9c-0.1,0.4-0.2,0.7-0.4,1c-0.1-1.4-0.1-2.8-0.4-4.1c-0.1,0-0.1,0-0.2,0
		c-0.1,0.6-0.2,1.3-0.2,1.9c-0.1,1.3,0.2,2.4,0.4,3.6c0.2,1,0.5,2.1,0.6,3.1c0.3,1.4,0.2,2.7-0.3,4.1c-0.5-1.7-0.8-3.5-1.8-5
		c0.1,0.4,0.2,0.7,0.3,1.1c0.2,1.2,0.4,2.4,0.5,3.6c0.2,1.6,0.4,3.3,0.9,5c0,0.1,0,0.1,0,0.2c-0.3-0.2-0.5-0.8-0.7-1.3
		c-0.6-1.6-1.4-3.2-2.4-4.6c-0.8-1.1-1.4-2.3-1.8-3.7c-0.5-1.3-0.6-2.6-0.8-4c0-0.2-0.1-0.4-0.2-0.6c-0.1,0.5-0.2,1-0.3,1.6
		c-0.4-0.9-0.3-1.7-0.1-2.5c0.3-1.2,0.5-2.4,0.9-3.6s0.7-2.3,1.1-3.4c0.5-1.4,0.5-2.7,0-4.1c-0.2-0.6-0.4-1.3-0.5-1.9
		c-0.3-0.9-0.8-1.5-1.4-2.3c-0.1,0.5-0.1,0.7-0.2,1.1c-0.4,1.4-0.7,2.7-1.4,4c-0.8,1.6-1.4,3.4-2.2,5c-0.8,1.9-1.4,3.9-2.1,5.9
		c-0.2,0.7-0.5,1.4-0.5,2.2s0.2,1.4,0.3,2.3c0.1,0.5,0.4,1,0.5,1.4c0.1,0.5,0.2,0.9,0.2,1.3c-0.1,1-0.2,2-0.6,3
		c-0.4,0.9-0.3,1.9,0,2.8c0.4,0.9,0.7,1.8,0.9,2.8c0.2,0.8,0.1,1.6,0.1,2.4c0,0.3-0.2,0.5-0.4,0.7c-0.8,1.1-1.7,2.1-2.9,2.9
		c-0.7,0.5-1.1,0.4-1.4-0.5C368.3,139,368.3,138.9,368.2,138.8 M364.4,119.4c-0.1-4.2,0.6-8.4,1.5-12.4c-0.4,0.7-0.6,1.5-0.9,2.3
		c-0.1,0.2-0.2,0.5-0.3,0.6c-0.3,0.7-0.5,1.4-0.8,2.3c-0.2,0.5-0.2,1.1-0.4,1.6c-0.2,0.5-0.2,0.9-0.1,1.4c0.2,0.9,0.4,1.7,0.5,2.5
		C364.1,118.1,364.2,118.8,364.4,119.4"/>
	<path class="st0" d="M197.7,119.3c-0.7-0.1-1.4-0.3-2.1-0.4c-0.8-0.1-1.7-0.3-2.5-0.2c-0.8,0-1.6-0.2-2.5-0.2c-1,0-2,0.2-3,0.2
		c-1,0-2-0.1-3.1-0.1c-0.5,0-1.1,0.1-1.6,0.1c-0.7,0-1.4,0-2.3,0c-0.5,0-1-0.2-1.5,0.1c-0.4,0.2-0.8,0-1.3-0.1
		c-0.5-0.1-1.1-0.1-1.6,0c-0.8,0.1-1.6-0.1-2.4-0.1c-1.7,0-3.4,0-5.1,0.1c-0.9,0-1.7,0.2-2.6,0c-0.5-0.2-1.2,0-1.7,0
		c-0.9,0-1.9,0.1-2.8,0.2c-1.2,0-2.3-0.2-3.3-0.8c-0.2-0.1-0.4-0.2-0.5-0.3c-1-0.7-1.9-0.4-2.7,0.3c-0.4,0.3-0.6,0.3-1,0
		c-0.5-0.5-1-0.4-1.6-0.2c-0.8,0.3-1.7,0.4-2.6,0.6c-0.7,0.2-1.4,0.1-2.1-0.2c-0.9-0.4-1.9-0.3-2.8-0.1c-0.3,0.1-0.5,0-0.7,0
		c-1.5-0.5-3.1-0.9-4.6-1.3c-0.1,0-0.3-0.1-0.5-0.1c0,0.1-0.1,0.1-0.1,0.2c-0.1,1.2-0.4,1.4-1.4,1.7c-0.4,0.1-0.7,0.2-1.1,0.2
		s-0.7,0.1-1-0.4c-0.2-0.3-0.6-0.5-1-0.5c-0.9-0.2-1.9-0.3-2.8-0.4c-0.5,0-0.8,0.1-0.9,0.5c-0.8-0.1-1.7-0.2-2.5-0.3
		c-0.6,0-1.2,0.2-1.8,0.2c-0.9,0-1.8-0.1-2.7-0.1c-0.2,0-0.4,0-0.5-0.1c-0.5-0.1-0.7,0-0.8,0.5c-0.5-0.1-1-0.2-1.4-0.2
		c-0.9,0-1.9,0.1-2.8,0.3c-1.1,0.2-2.1,0.1-3.2,0.1c-2.1-0.2-4.2-0.3-6.3-0.4c-2.8-0.1-5.5-0.1-8.3-0.1c-0.4,0-0.7,0.1-1.2,0.2
		c-0.4,0.1-0.6,0.3-1-0.1c-0.1-0.1-0.3,0-0.4,0c-0.3,0-0.5,0.1-0.8,0.1c-0.1,0-0.1,0-0.2,0c-0.8-0.4-1.5-0.5-2.4-0.1
		c-1.1,0.4-2.3,0.4-3.3,0.1c-0.7-0.2-1.4,0-2.1,0.1c-0.2,0-0.5-0.1-0.6-0.1c-0.2,0-0.4-0.1-0.5-0.1c-0.6,0.1-1.2,0.2-1.8,0.2
		c-0.5,0-0.9-0.2-1.3-0.5c-0.1-0.1-0.3-0.2-0.4-0.2c-0.5,0-1,0.1-1.5,0.2c0.4,0.6,0.2,0.9-0.5,0.9c-0.6,0-1.4-0.2-2-0.3
		c-0.2,0-0.5,0-0.5,0.1c-0.5,0.5-1,0.5-1.5,0.4c-1.5-0.3-3.2-0.3-4.7,0.1c-0.7,0.2-1.5-0.1-2.3-0.2c-1.7-0.2-3.4-0.5-5.1-0.6
		c-0.5,0-1,0.3-1.5,0.4c-0.3,0.1-0.5,0.2-0.6-0.1c-0.1-0.1-0.2-0.1-0.4-0.1c-0.4,0.1-0.7,0.1-1,0.3c-0.5,0.3-1.1,0.3-1.7,0.2
		c-0.5-0.1-1.1,0-1.7,0c-0.7,0-1.4,0-2.3,0c-0.7,0-1.4,0-2.3,0.1c-0.2,0-0.5,0-0.6,0.1c-0.4-0.6-0.5-0.6-1.2-0.4
		c-0.1,0.1-0.4,0.1-0.5,0c-0.8-0.3-1.6-0.2-2.3-0.1c-0.4,0.1-0.9,0.4-1.1-0.3c-0.2-0.6,0.3-1.2,0.9-1.3c0.4-0.1,0.8-0.1,1.2-0.3
		c0.2-0.1,0.4-0.3,0.5-0.5c0.3-0.6,0.6-0.8,1.4-0.9c1.7-0.1,3.3,0.3,5,0.5c0.6,0.1,1.2,0.1,1.7-0.2c1.2-0.4,2.4-0.6,3.6-0.9
		c0.1,0,0.3,0,0.5,0.1c0.7,0.3,1.4,0.6,2.1,0.7c0.7,0.1,1.4-0.4,2.1-0.4c1.5-0.1,3.2-0.1,4.7-0.1c0.3,0,0.5,0.5,0.6,0.7
		c0.5,0.2,1,0.2,1.4-0.3c0.6-0.7,1.4-0.5,2-0.4c1.1,0.2,2.3,0.1,3.3-0.1c0.5-0.1,1.2,0,1.7,0c0.5,0,0.9,0.1,1.3,0.2
		c0.5,0,1.1-0.2,1.5-0.5c0.5-0.5,0.6-0.5,1.2,0.1c0.2,0.2,0.3,0.3,0.5,0.5c0.5-0.5,1.1-0.1,1.6-0.1c1.1,0.1,2.1,0.3,3.2,0.5
		c0.3-0.6,0.8-0.8,1.4-0.9c0.6-0.2,1.3-0.3,2-0.4c0.1,0.2,0.2,0.4,0.2,0.5c0.2,0.5,0.3,0.6,0.8,0.3c0.4-0.3,0.8-0.5,1.3-0.4
		c0.9,0.1,1.8,0.1,2.8,0.2c0.3,0,0.5,0.2,0.7,0.3c0.1,0.1,0.3,0.1,0.4,0.1c1.4-0.1,2.7-0.2,4.1-0.4c0.8-0.1,1.5-0.2,2.3-0.2
		c0.2,0,0.5,0.2,0.5,0.3c0.1,0.4,0.1,0.7-0.3,0.9c-0.4,0.2-0.7,0.3-1.2,0.4v1.2c0.7,0,1.4,0,2,0c0.2,0,0.3-0.1,0.5-0.2
		c0.9-0.5,1.8-1.2,2.7-1.7c0.2-0.1,0.4-0.2,0.5-0.2c2,0.1,3.8-0.3,5.8-0.5c0.3,0,0.6,0.1,1,0.2c0.4,0.1,0.6,0.3,1,0.5
		c0.5,0.3,0.9,0.4,1.4,0.2c-0.2-0.8,0.1-1.1,1-1c0.9,0,1.8,0.2,2.8,0.3c2,0.2,4,0.4,6,0.2c1.4-0.2,2.8-0.3,4.2,0.1
		c0.3,0.1,0.6-0.1,0.9-0.3c0.4-0.2,0.7-0.3,1.1-0.1c1.4,0.4,2.9,0.2,4.3,0c0.6-0.1,1.4,0,2,0c2.1,0.2,4.1,0.5,6.1,0.7
		c0.2,0,0.5-0.1,0.6-0.3c0.3-0.3,0.5-0.4,0.9-0.2c0.6,0.3,1.3,0.2,1.9,0c0.1,0,0.2-0.1,0.3-0.1c2.1,0.1,4.1,0.2,6.2,0.3
		c0.7,0,0.9,0.3,1.1,0.5c0.3,0,0.5-0.1,0.8-0.1c1.3,0.3,2.5,0.1,3.8-0.1c0.5-0.1,1.1-0.2,1.6-0.3c0.2,0,0.5,0.1,0.6,0.3
		c0.3,0.3,0.5,0.4,0.7,0.3c2.1-0.1,4.2-0.2,6.3-0.3c0.2,0,0.5,0,0.6,0c0.1,0.3,0.2,0.5,0.3,0.8c0.1,0,0.2,0,0.3-0.1
		c0.8-0.5,1.7-0.5,2.6-0.3c0.5,0.1,0.6,0,0.8-0.5c1.2,0.2,2.3,0.4,3.4,0.5c0.8,0.1,1.7,0,2.5,0c1.1,0,2.2-0.1,3.3-0.2
		c0.4,0,0.7-0.1,0.9-0.3c0.5-0.4,1-0.4,1.5-0.3c0.3,0.1,0.4,0.5,0.5,0.7c0.4,0.3,0.7,0,1.1-0.3c0.3-0.2,0.6-0.5,1-0.1h0.2
		c0.7-0.5,1.5-0.4,2.3-0.3c1.4,0.2,2.6,0.3,4,0c0.2,0,0.5,0.1,0.7,0.2c0.3,0.3-0.1,0.5-0.3,0.6c-0.1,0.1-0.1,0.1-0.2,0.2
		c-0.3,0.3-0.5,0.5-0.3,0.9c0.3,0.5,0.8,0.8,1.3,0.7c0.1,0,0.2-0.1,0.2-0.1c0.6-1.3,1.9-1.7,3.2-2c0.9-0.2,1.9-0.3,2.8-0.4
		c0.4,0,0.6,0.1,1-0.3c0.1-0.1,0.4,0,0.5,0.1c0.4,0.4,0.7,0.5,1.2,0.5c0.3,0,0.6,0,0.9,0s0.6-0.1,0.9-0.3c0.4-0.3,0.7-0.4,1.1-0.2
		c0.9,0.4,1.8,0,2.7-0.2c0.5-0.1,1-0.2,1.5-0.3c0.1,0.4,0.2,0.6,0.4,0.9c0.4,0.7,0.9,1,1.7,0.7c0.8-0.3,1.8-0.5,2.5-0.9
		c0.9-0.5,1.7-0.4,2.6-0.4c0.9,0.1,1.8,0.3,2.7-0.1c0.1,0,0.2-0.1,0.3,0c0.5,0.5,1.1,0.1,1.5,0c0.1,0,0.3,0.1,0.4,0.1
		c0.2,0,0.3,0.2,0.5,0.2c1.1,0,2.1,0.1,3.2,0c0.5,0,1.1-0.4,1.6-0.5c0.3-0.1,0.5-0.1,0.8,0c0.9,0.3,1.8,0.1,2.6-0.1
		c0.4,0,0.6,0,1,0.3c0.8,0.8,1.8,1.3,2.9,1.4c0.4,0.1,0.8-0.1,1.2-0.2c0.1,0,0.1-0.2,0.2-0.3c-1-0.2-2,0-2.9-0.5
		c0.7-0.5,1.4-0.7,2.2-0.6c1.1,0.1,2.2,0.2,3.2,0.3c0.1,0,0.2,0,0.3,0c1.5-0.5,2.9-0.1,4.3,0.5c0.1,0.1,0.3,0.1,0.4,0
		c2-0.6,4-0.8,6-0.8c1,0,1.2,0.2,1.3,1.1c0.3-0.1,0.5-0.1,0.7-0.2c1.8-0.1,3.7-0.3,5.5-0.4c1.4-0.1,2.6-0.2,4-0.3
		c0.2,0,0.5,0,0.6,0.1c1.2,0.4,2.3,0.1,3.5,0.1c0.8,0,1.7-0.1,2.5-0.2c0.6,0,1.2,0,1.5-0.6c0.4,0.4,0.6,0.6,1,0.9v1.5
		c-0.1,0.1-0.1,0.1-0.2,0.2c-0.6,0.8-1.4,1.3-2.5,1.2c-1.7-0.2-3.4-0.3-5.1,0c-0.4,0.1-0.7,0.2-1,0c-0.5-0.3-0.9-0.2-1.4-0.2
		c-0.8,0.1-1.6,0.2-2.4,0.2c-0.6,0-1.3-0.3-1.9,0c-0.1,0.1-0.3,0-0.4,0c-1.1-0.1-2.2-0.2-3.2-0.2c-0.2,0-0.4,0.1-0.5,0.1
		s-0.5,0.1-0.6,0.1c-0.3,0-0.5-0.1-0.7-0.2c-0.7-0.1-1.4-0.4-2.1,0.4c-0.1,0.1-0.3,0.1-0.4,0.1c-0.4,0-0.8-0.1-1.2-0.1
		c-2.3-0.3-4.6-0.3-6.9,0.1c-0.4,0.1-0.6,0-0.9-0.2c-0.4-0.3-0.7-0.3-1.2-0.3c-0.9,0.2-1.7,0.2-2.7,0.3c0-0.4,0-0.6-0.1-1
		c-1.1,0-2.2-0.3-3.1,0.6c-0.2,0.2-0.5,0.4-0.7,0.5c-0.1,0.1-0.3,0.2-0.4,0.1c-1-0.1-2-0.2-3-0.4c-1.7-0.3-3.4-0.3-5-0.1
		c-0.2,0-0.5,0.2-0.6,0.3c-0.9,0-1.8-0.1-2.8,0s-1.8,0.1-2.7-0.3c-0.3-0.1-0.5-0.1-0.8-0.2c-0.9-0.1-1.8,0.1-2.6,0.5
		c-0.2,0.1-0.5,0.1-0.6,0.1c-0.7-0.2-1.4-0.2-2.1,0c-0.1,0-0.2,0.1-0.4,0c-1.4-0.2-3-0.3-4.4-0.5c-1-0.1-1.9-0.2-2.9,0
		c-0.8,0.2-1.6,0.5-2.5,0.4c-0.6-0.1-1.3-0.2-1.9-0.2c-1,0-2,0-2.9,0c-1,0-1.9,0-2.9,0c-0.5,0-1,0-1.2,0.5L197.7,119.3L197.7,119.3z
		"/>
	<path class="st0" d="M29,116.3c0.9-0.4,1.7-0.7,2.6-0.9c0.5-0.1,1.2,0.1,1.8,0.2c0.5,0,0.9-0.1,1.4-0.1c0.7,0,1.4,0.1,2.1,0.1
		c0.3,0,0.6,0,0.9-0.1c0.1,0,0.2-0.1,0.3-0.1c1.1-0.6,2.2-0.6,3.2,0.1c0.3,0.2,0.7,0.2,1.1,0.1c1.4-0.2,2.9-0.3,4.1-1.1
		c0.1,0,0.2-0.1,0.2,0c0.7,0.3,1.5,0.5,2.3,0.7c-0.2,0.5-0.5,1-0.7,1.5c-0.2,0.3-0.3,0.5-0.1,0.8c0.2,0.5,0.1,0.7-0.5,0.7
		c-0.8,0-1.5-0.3-2.3-0.2c-0.6,0.1-1.2-0.1-1.7-0.1c-1,0.1-2,0.3-3,0c-0.5-0.2-1.2,0.1-1.8,0.1c-1.2,0-2.3,0.1-3.3,0
		c-0.8-0.1-1.5-0.1-2.3,0.3c-0.8,0.4-1.5,0.2-2.3,0.1c-0.6-0.1-1.4-0.4-2-0.5L29,116.3L29,116.3z"/>
	<path class="st0" d="M276.8,69.2c-0.2,0.4-0.5,0.5-0.9,0.5c-2.1,0.1-4.2,0.3-6.3,0.3c-1,0-2-0.2-3-0.2c-0.5,0-1.1,0.1-1.6,0.1
		c-0.4,0-0.8,0.1-1.2,0c-2.3-0.4-4.6-0.1-6.9,0c-1.2,0-2.3,0.3-3.6-0.1c-0.2,0-0.3-0.1-0.5-0.1c0-0.1,0-0.2,0-0.2c0-0.1,0-0.2,0-0.4
		c0.5,0,0.9-0.1,1.4-0.1c4.9-0.1,9.8-0.2,14.7-0.2c1.4,0,2.5-0.5,3.8-0.9c0.8-0.3,1.5-0.5,2.3-0.9c0.5-0.3,1.2-0.4,1.8-0.3
		L276.8,69.2L276.8,69.2z"/>
	<path class="st0" d="M29.1,69.1c0-0.6,0-1.2,0-1.7c0-0.5,0.5-0.5,0.7-0.5c0.6,0,1-0.3,1.4-0.7c0.1-0.1,0.4-0.3,0.5-0.3
		c1,0.1,2,0.2,3,0.3c-0.1,0.5-0.2,1-0.3,1.5c2.6-0.1,5.1-0.2,7.8-0.3c0-0.1,0-0.2,0-0.3c0.1-0.8,0.3-0.9,1.1-0.9c0.3,0,0.6,0,0.9,0
		c0.6-0.1,1.2,0.1,1.7,0.5c0.1,0.1,0.4,0.2,0.5,0.1c0.5-0.1,1-0.2,1.5-0.2c0.4-0.1,0.6,0,0.8,0.3c0.2,0.3,0.4,0.3,0.6,0.2
		c0.9-0.5,1.9-0.5,3-0.5c0.9,0,1.9-0.2,2.8-0.3c0.4,0,0.7,0,1.1,0.1c0.6,0.2,1.2,0.2,1.8,0c1.6-0.5,3.3-0.5,5-0.3
		c0.4,0.1,0.7,0.2,1,0.4c0.5,0.3,0.7,0.2,1.1,0c0.2-0.1,0.4-0.1,0.5-0.1c0.1,0,0.1,0,0.2,0c2.1-0.2,4.1,0.2,6.2,0.2
		c0.3,0,0.5,0,0.6-0.3c0.5-0.5,1.1-0.7,1.8-0.5c0.9,0.3,1.9,0.5,2.8,0.8c0.7,0.3,1.4,0.3,2.3,0.1c1-0.2,2-0.3,2.9-0.5
		c0.3,0,0.5,0.1,0.7,0.1c0.5,0.2,1.1,0.2,1.6-0.1c0.4-0.2,0.8-0.2,1.3-0.3c0,0,0.1,0,0.1-0.1c0.3-0.5,0.6-0.3,1.1-0.2
		c0.4,0.1,0.7,0.2,1.1,0.3c0.3,0.1,0.5,0.2,0.7-0.1c0-0.1,0.2-0.1,0.2-0.1c0.6,0.3,1.3,0.5,1.8,0.7c0.2,0.1,0.4,0.2,0.5,0.2
		c1.8-0.2,3.6-0.4,5.4-0.5c0.4,0,0.8,0.1,1.2,0.1c0.9,0,1.7-0.1,2.6-0.1c0.8,0,1.7,0.1,2.5,0.1c0.9,0,1.8-0.1,2.8-0.1
		c0.5,0,1.1-0.1,1.5,0.1c0.5,0.1,1,0,1.4-0.2c0.5-0.2,0.8-0.2,1.4,0c0.9,0.3,1.8,0.5,2.7,0.6c0.4,0.1,0.7-0.1,1.1-0.3
		c0.7-0.4,1.5-0.4,2.3-0.1c0.4,0.1,0.7,0.1,0.9-0.4c0.2-0.5,0.5-0.5,0.9-0.5c0.6,0.1,1.2,0.1,1.8,0.3c0.8,0.3,1,0.6,0.7,1.4
		c0,0.1-0.1,0.2-0.1,0.4c0.3,0.1,0.5,0.1,0.4-0.3c0-0.2,0-0.3,0-0.5c0-0.5,0.2-0.5,0.6-0.5c1.7,0.5,3.3,1.1,5.1,0.3
		c0.4-0.2,0.6-0.5,0.9-0.6c0.1-0.1,0.2-0.2,0.3-0.2c1.3,0.1,2.5,0.3,3.7,0.5c0.5,0.1,0.9,0.4,1.3,0.6c0.4,0.2,0.6,0.2,0.9-0.2
		c0.2-0.3,0.5-0.5,0.8-0.5c1.1-0.3,2.2-0.5,3.2-0.5c1.2-0.1,2.4-0.1,3.6-0.1c0.4,0,0.5,0.1,0.5,0.5c0.1,0.2,0,0.5,0.5,0.5
		c0-0.2,0-0.4,0-0.5c0.3,0.1,0.5,0.1,0.8,0.2c0.4,0.1,0.6,0.2,0.9-0.2c0-0.1,0.2,0,0.3,0c1.1,0.2,2.2,0.4,3.3,0.5
		c0.5,0.1,1.1,0.2,1.5-0.4c0.1-0.1,0.4-0.2,0.5-0.2c2.2,0.1,4.2,0.2,6.4,0.3c0.7,0.1,1.5,0.3,2.3,0.4c0.1,0,0.3,0,0.4,0
		c0.7-0.6,1.6-0.5,2.5-0.6c0.8,0.6,1.5-0.2,2.3-0.3c0.3,0,0.5-0.1,0.8,0c1.1,0.3,2.1,0.1,3.2,0c0.4,0,0.8-0.1,1.2-0.1
		c0.2,0,0.4,0.1,0.5,0.3c0.2,0.3,0.5,0.4,0.7,0.3c1.4-0.2,2.7-0.4,4.1-0.5s2.8-0.2,4.1,0.3c1,0.4,2,0.1,2.9-0.2
		c0.9-0.2,1.8-0.2,2.7,0c0.5,0.1,1.2-0.1,1.7-0.2c0.8-0.2,1.5-0.5,2.3,0.1c1.3,0.8,2.5,0.5,3.8-0.1c0.3-0.1,0.5-0.3,0.7-0.2
		c0.4,0.2,0.6,0.5,0.5,1c0,0.3,0,0.5,0,0.7h0.6c0.1-0.3,0.1-0.6,0.2-0.9c0.1-0.5,0.3-0.6,0.7-0.6s0.9,0,1.4,0
		c0.7,0.1,1.4,0.3,1.4,1.2c0.6-0.2,1.3-0.4,1.9-0.5c0.2,0,0.4-0.2,0.5-0.1c0.7,0.5,1.4,0.1,2.2,0c1.4-0.2,2.9-0.5,4.3-0.6
		c0.3,0,0.5,0.1,0.7,0.2c0.9,0.6,1.8,0.8,2.8,0.3c0.2-0.1,0.5-0.1,0.7-0.2c1.1-0.5,2.3-0.2,3.3-0.1c1,0.1,1.9,0.3,2.8,0.4
		c0.1,0,0.2,0,0.3,0c1.6-0.5,3.2,0,4.8,0c0.5,0,1,0,1.4-0.1c0.5-0.1,0.9-0.1,1.4,0.1c0.9,0.5,1.9,0.4,2.8,0.4c0.2,0,0.3-0.1,0.5-0.2
		c0.3-0.2,0.6-0.5,0.9-0.6c0.4,0.4,0.7,0.7,1.1,1.2c0-0.1,0-0.1,0.1-0.2c0.3,0,0.6-0.1,0.9-0.1c1.2,0.2,2.4,0.5,3.6,0.5
		c0.8,0,1.6-0.2,2.5-0.3c2.3-0.4,4.6-0.6,6.9-0.5c0.6,0,0.6,0.5,0.8,1c0.6-0.2,1.2-0.5,1.7-0.6c0.2-0.1,0.3-0.1,0.5-0.2
		c1-0.7,2-0.7,3.1-0.4c0.8,0.3,1.6,0.2,2.5,0.2c0.6,0,1.4,0,2,0c0.5,0,0.8,0.2,1,0.5c-1.2,0.3-2.3,0.5-3.4,0.8
		c-0.4,0.1-0.6,0.3-0.8,0.6c-0.1,0.3-0.5,0.4-0.7,0.5c-1.1,0.3-2.2,0.5-3.2,0.8c-0.2,0.1-0.4,0.2-0.5,0.3c-0.1,0-0.2,0.1-0.3,0.1
		c-0.3,0-0.5-0.1-0.8-0.1c-0.7,0-1.5,0.1-2.3,0.1c-0.4,0-0.8-0.1-1.2-0.1c-1,0-2.1-0.1-3.1,0c-1.2,0.1-2.3,0.1-3.6-0.1
		c-0.4-0.1-0.7,0-1.1,0c-0.5,0.1-1,0.1-1.5,0c-0.8-0.1-1.6,0.1-2.4,0.1c-0.5,0-1,0-1.4-0.2c-1.5-0.5-3.1-0.6-4.7-0.5s-3.3,0.2-5,0.4
		c-2.1,0.3-4-0.3-5.9-0.5c-0.8-0.1-1.6,0-2.4,0.2c-1.3,0.4-2.5,0.3-3.8,0.1c-0.8-0.1-1.7-0.3-2.5-0.4c-0.1,0-0.2,0-0.3,0
		c-0.4,0.5-0.8,0.2-1.3,0.1c-0.3-0.1-0.5,0-0.8,0c-0.5,0.1-0.9,0.1-1.4,0c-0.4-0.1-0.7-0.1-1,0c-0.7,0.2-1.4,0.2-2.1,0
		c-0.5-0.1-0.9,0-1.4,0c-0.6,0-1.4,0.1-2,0c-0.8-0.1-1.6-0.1-2.4,0.1c-0.1,0-0.2,0.1-0.3,0c-0.7-0.5-1.5-0.3-2.3-0.5
		c-0.3-0.1-0.7,0.1-1.1,0.2c-0.5,0.1-1.1,0.1-1.4-0.4c-0.1-0.1-0.3-0.1-0.5-0.1c-1.2,0.2-2.4,0.3-3.6,0.5c-1.1,0.2-2.3,0.3-3.3,0.4
		c-0.2,0-0.4,0-0.5-0.1c-1.6-0.3-3.3-0.3-5,0c-0.1,0-0.4,0-0.4-0.1c-0.5-0.5-1.2-0.5-1.8-0.4c-1.1,0.3-2.1,0.1-3.2,0
		c-1.3,0-2.5-0.2-3.8-0.1c-1.6,0.1-3.2,0.4-4.9,0.5c-0.4,0-0.7,0-1,0.3c-0.1,0.1-0.3,0.1-0.5,0c-1.2-0.2-2.3-0.4-3.5-0.5
		c-0.5-0.1-1.1,0.1-1.5,0.2c-0.1,0-0.3,0.1-0.4,0c-0.4-0.5-0.7-0.2-1.1-0.1c-1.5,0.5-3.2,0.4-4.7,0.3c-1.7-0.2-3.4-0.3-5.1-0.4
		c-0.4,0-0.8-0.1-1.2-0.1c-0.3,0-0.5-0.2-0.7,0.2c0,0.1-0.4,0-0.6-0.1c-0.2,0-0.5-0.2-0.6-0.1c-0.6,0.2-1.3,0.1-1.9,0.1
		c-1.1-0.1-2.2-0.1-3.2,0c-2,0.1-3.9,0.4-5.9,0.5c-1.2,0-2.4-0.3-3.6-0.4c-0.5-0.1-0.9-0.2-1.4-0.2c-0.3,0-0.5,0.2-0.7,0.3
		c-0.2,0-0.4,0.1-0.5,0.1c-1.1-0.5-2.2-0.5-3.2-0.3c-0.2,0-0.4,0.1-0.5,0.1c-0.9,0.3-1.8,0.2-2.7-0.3c-0.1-0.1-0.4-0.1-0.5,0
		c-0.6,0.2-1.2,0.3-1.8,0.5c-0.8,0.4-1.5,0.3-2.3,0.2c-1.9-0.3-3.8-0.5-5.7-0.7c-0.7-0.1-1.5,0.1-2.3,0.2c-0.9,0.1-1.8,0.3-2.7,0.3
		c-1,0-2-0.1-2.9-0.3c-1.4-0.4-2.5-0.2-3.8,0.2c-0.6,0.2-1.3,0.2-1.9,0c-0.4-0.1-0.7-0.1-1.1,0c-0.8,0.3-1.7,0.2-2.5,0
		c-0.9-0.2-1.7-0.1-2.5,0.1c-0.3,0.1-0.5,0-0.8-0.2c-0.4-0.2-0.9-0.2-1.3-0.3c-0.4-0.1-0.6-0.1-1-0.1c-0.1,0-0.2,0-0.3,0
		c-0.6,0.5-1.3,0.1-1.9,0.1c-0.8,0-1.7,0.1-2.5,0.2c-0.2,0-0.5,0.1-0.5,0c-1.1-0.5-2.2-0.1-3.2-0.1c-1.4,0-2.8,0.1-4.2,0.2
		c-0.1,0-0.1,0-0.2,0c-1.4-0.5-2.7,0-4.1,0.2c-0.6,0.1-1.4,0.1-2-0.1c-1.8-0.3-3.6-0.1-5.4,0.1c-1.3,0.1-2.4,0.3-3.7,0.4
		c-0.6,0-1.3-0.2-2-0.4c-0.8-0.2-1.7-0.2-2.5,0c-0.5,0.1-1.2,0.3-1.7,0.4c-0.5,0-0.9-0.1-1.4-0.2c-0.4-0.1-0.8-0.3-1.2-0.3
		c-0.9,0-1.8,0-2.7,0.1c-0.7,0.1-1.4,0-2.2-0.2c-1.3-0.4-2.5-0.3-3.8,0c-1.1,0.3-2.2,0.2-3.3,0.1c-1.3-0.1-2.4-0.1-3.7-0.2
		C29.9,69.1,29.5,69.1,29.1,69.1"/>
	<path class="st0" d="M85.5,75.1v-0.7c0.9-0.3,2.1,0,2.5-1.3c0.5,0.1,0.9,0.1,1.4,0.3c0.9,0.3,1.8,0.5,2.7,0.9
		c0.3,0.1,0.5,0.1,0.6-0.2c0.2-0.5,0.5-0.5,1.1-0.5c2.2,0.1,4.4,0.1,6.5,0.8c0.5,0.2,1.2,0.5,1.6,0.7c0.6,0.4,1,0.9,1.1,1.6
		c0,0.6,0.4,1.2,0.7,1.6c0.6,0.7,1.4,1.4,2,2c0.2,0.2,0.4,0.4,0.5,0.6c1,2.7,2,5.4,3,8.1c0.2,0.4,0.4,0.8,0.6,1.1
		c1.4,1.6,3,3.3,4.1,5.2c0.5,0.8,0.8,1.7,1.2,2.6c0.1,0.3-0.1,0.6-0.1,0.9c0,0.1,0,0.2,0,0.4c0.1,1.1,0.2,2.1,0.2,3.2
		c0,0.2,0.1,0.4,0.2,0.5c0.7,1.2,0.9,2.3,0.7,3.7c-0.1,0.7-0.3,1.4-0.5,2.1c-0.3,1-0.8,1.8-2.2,1.6c0,0.2-0.1,0.3-0.1,0.5
		c-0.1,0.4-0.3,0.5-0.6,0.5c-2-0.5-4-0.9-5.7-2.2c-0.5-0.4-1.1-0.6-0.9-1.4c0.2,0,0.4,0,0.5-0.1V107c-0.2,0-0.4,0-0.5,0
		c0,0.2,0,0.4-0.1,0.5c-0.5-0.5-0.8-1-1.2-1.4c0.4-0.4,0.4-0.5-0.1-0.8c-0.4-0.3-0.5-0.7-0.6-1.1c-0.2-0.3-0.4-0.6-0.5-0.9
		c-0.8-0.9-1.3-2-1.6-3.1c-0.1-0.3-0.4-0.5-0.5-0.7c-0.3-0.3-0.5-0.5-0.8-0.9c-1.4-2-2.2-4.2-3.1-6.4c0.3-0.1,0.5-0.1,0.8-0.2
		c0.3-0.1,0.5-0.4,0.6-0.5c0.1-0.5,0.5-0.5,0.8-0.6c1.7-0.3,2.6-1.4,2.3-3.1c0-0.1,0-0.2-0.1-0.2c-0.6-0.6-1.4-0.4-1.7,0.5
		c-0.1,0.3-0.1,0.5-0.1,0.8c-1,0.2-1.9,0.3-2.9,0.5c-0.1,0-0.1,0-0.2,0c-1,0.4-1.4-0.1-2-0.9c-1.5-2.3-2.8-4.7-3.6-7.3
		c-0.1-0.2-0.2-0.5-0.3-0.5c-1.4-1.4-2.6-2.7-4.1-4C86.8,75.8,86.2,75.5,85.5,75.1 M113.3,98.9c-1,0.1-1.9,0.2-2.8,0.3
		c-0.4,0-1-0.3-1-0.6c-0.1-0.5,0.3-0.6,0.6-0.7c0.1,0,0.1,0,0.2-0.1c0.1-0.1,0.2-0.2,0.4-0.2c-0.1-0.1-0.3-0.2-0.4-0.3
		c-0.4-0.1-0.8-0.1-1.2-0.2c-0.8-0.3-1.4,0.1-2,0.5c-0.5,0.5-1,1-1.8,1.1c-0.5,0.1-0.5,0.6-0.2,1c0.3,0.3,0.6,0.5,0.9,0.7
		c0.3,0.3,0.5,0.4,0.8,0c0.3-0.3,0.6-0.4,1.1-0.4c1.7,0,3.5,0,5.2,0h0.6C113.6,99.7,113.4,99.3,113.3,98.9 M103,86.8
		c0,0,0.1-0.1,0.2-0.1c0-0.4,0-0.6,0-1c0-0.1-0.1-0.2-0.2-0.3c-0.1,0.1-0.2,0.2-0.2,0.3c0,0.3,0,0.5,0,0.7
		C102.7,86.6,102.9,86.7,103,86.8"/>
	<path class="st0" d="M67.4,108c0.9-3,1.2-5.9,1.3-9.1h1.2c-0.1-0.5-0.2-0.9-0.3-1.3c-0.1-0.5,0.1-0.8,0.5-0.9
		c0.4-0.1,0.8-0.1,1.2-0.2c0.1,0,0.3-0.2,0.4-0.2c-0.1-0.1-0.2-0.1-0.4-0.2c-0.7-0.1-1.4-0.2-2.1-0.4c-0.8-0.3-1.2-0.9-1.2-1.7
		c-0.1-2.1-0.2-4.1-0.3-6.1c0-0.9,0.2-1.9,0.4-2.8c0.1-0.5,0.1-1,0-1.5s0-1.2,0-1.8c0-1,0.1-1.9,0.2-2.9c0-0.2-0.1-0.5-0.3-0.6
		c-0.7-0.7-1.4-1.4-2.2-2.2c-0.5-0.5-0.4-0.8,0.2-1c1.1-0.4,2.2-0.6,3.2-0.8c1.6-0.3,3.2-0.4,4.8-0.6c0.2,0,0.4-0.3,0.5-0.4
		c0.2-0.1,0.5-0.2,0.7-0.3c0.1,0,0.3,0,0.4,0c1.3,0,1.3,0,2.3,0.5c0.3-0.3,0.5-0.5,0.9,0c0.1,0.1,0.3,0.1,0.5,0
		c0.5-0.1,1.1-0.3,1.6-0.5c0.3-0.1,0.5-0.1,0.7,0.2c0.4,0.5,0.8,0.9,1.2,1.4c0.2,0.3,0.2,0.5,0.4,0.9c-0.4,0.1-0.7,0.1-1,0.2
		c-1.2,0.3-1.9,1.3-2,2.6c-0.1,0.7-0.2,1.4-0.4,2.1c-0.5,1.6-0.4,3.2-0.1,4.9c0.1,0.5,0.4,0.9,0.8,1.3c0.1,0.1,0.2,0.4,0.2,0.5
		c-0.5,2-0.3,4.1,0,6c0.1,0.5,0.1,1-0.2,1.5c-0.3,0.6-0.5,1.3-0.7,1.9c-0.3,0.6-0.3,1.2-0.1,1.8c0.5,1.6,0.9,3.3,1.2,5
		c0.2,0.7,0,1.5-0.1,2.3c-0.1,0.5-0.1,0.9,0.5,1.2c0.5,0.4,0.9,0.8,1.4,1.4c0.3,0.4,0.4,0.7,0.1,1.1c-0.3,0.5-0.5,1-0.9,1.4
		c-0.5,0.5-0.8,0.6-1.4,0.3c-0.7-0.4-1.5-0.7-2.3-1.1c-0.2-0.1-0.5-0.1-0.6-0.1c-0.8,0.2-1.6,0.4-2.4,0.5c-0.3,0-0.5,0-0.7-0.1
		c-0.6-0.1-1.3-0.3-1.9-0.5c-0.2,0-0.4,0-0.5,0c-0.8,0.2-1.6,0.5-2.4,0.7c-1.3,0.4-3.2-0.4-3.9-1.4c-0.3-0.5,0.1-1.1,0.6-1.2
		C66.5,108,66.9,108,67.4,108 M73.3,97.7c-0.4,0.4-0.5,0.6-0.8,0.8c-0.1,0.1-0.3,0.2-0.4,0.3c0.2,0,0.3,0.1,0.5,0.1
		c1.3,0,2.5,0.1,3.8,0.5c0.1,0,0.2,0,0.3,0c0.7-0.1,1.4-0.3,2.3-0.4v-1.4L73.3,97.7L73.3,97.7z"/>
	<path class="st0" d="M229.2,74.7c0.3,0,0.5,0.1,0.7,0c1.2-0.3,2.3-0.3,3.4,0.1c0.4-0.6,1-0.6,1.5-0.7c1.9-0.2,3.8-0.4,5.7,0.1
		c0.4,0.1,0.6,0.2,0.9,0.4c0.7,0.5,1.5,0.4,2.3,0.2c0.3-0.1,0.5-0.5,0.8-0.7c0.8-0.1,1.2,0.4,1.5,2c-1.3,0.4-1.4,1.5-1.8,2.5
		c-0.2,0.5-0.2,1,0,1.6c0.9,3.8,1.8,7.5,2.6,11.3c0.3,1.3,0.5,2.5,0.7,3.7c0.2,0.6,0.5,1.2,0.7,1.8c0.1,0.3,0.2,0.5,0.2,0.8
		c-0.7,3.8-1.6,7.5-2.9,11.1c-0.2,0.5-0.1,0.9-0.3,1.4c-0.2,0.6-0.4,0.8-1,0.8c-1-0.1-2.1-0.3-3.1-0.5c-0.3,0-0.5-0.2-0.6-0.3
		c-1.4-0.7-2.8-2-2.3-4.2c0.2-0.7,0.2-1.4-0.5-1.8c-0.3-0.2-0.4-0.5-0.5-0.7c-0.9-1.1-1.4-2.3-1.4-3.6c0-1.1,0.1-2.3,0.1-3.3
		c0.6-0.1,0.8-0.4,1-0.9c0.2-0.5,0.6-0.9,0.9-1.4c0.2-0.2,0.4-0.5,0.5-0.7c-0.5,0-1-0.1-1.4-0.1c-0.3,0-0.6-0.1-0.9-0.1
		c-0.5-0.1-0.8-0.4-1-0.8c-0.6-1.4-1.4-2.7-2.2-4.1c-0.3-0.5-0.2-0.7,0.1-1.1c0.5-0.5,0.8-1,0.5-1.7c-1.4-0.4-1.9-1.1-2-2.6
		c-0.1-0.7-0.2-1.4-0.5-2.1c-0.5-1.2-0.5-2.3-0.5-3.6c0-0.5-0.1-0.6-0.5-0.8c-0.4-0.1-0.7-0.3-1-0.5c-0.7-0.4-0.7-0.7-0.2-1.3
		C229,74.7,229.1,74.7,229.2,74.7C229.2,74.6,229.2,74.6,229.2,74.7 M242,91.5c1.1,0.1,2.3,0.1,2.4,1.5h1.4c0.4-1.4,0.4-2-0.1-2.7
		c-0.9,0-1.9,0-2.8,0C242.2,90.3,241.9,90.7,242,91.5"/>
	<path class="st0" d="M252.8,88.8c-0.2,0.8-0.6,1.3-1.6,1.4c-0.5,0.1-0.9,0.1-1.4,0.1c-0.8,0-1.2-0.4-1.2-1.1c0-0.7,0-1.4,0-2.1
		c-0.2-2.3,0.2-4.5,0.8-6.7c0.4-1.3,0.6-2.5,0.9-3.9c0-0.1,0.1-0.3,0.2-0.4c1.1-1.4,2.3-2.4,4-2.8c1.2-0.3,1.4-0.2,2,0.8
		c0.8,1.6,1.5,3.3,2.2,5c0.4,0.8,0.6,1.6,1.4,2.2c0.3,0.2,0.3,0.4,0.3,0.7c-0.2,0.9-0.4,1.8-0.5,2.7c-0.1,0.5,0.1,1.1,0.2,1.5
		c0.5,1.5,1.2,3,1.7,4.4c0.3,0.8,0.5,1.7,0.7,2.5c0,0.1,0,0.2,0,0.2c-0.5,0.4-0.2,0.8-0.1,1.3c0.2,1,0.5,2,0.7,3
		c0.1,0.4,0,0.7-0.1,1.1c-0.3,1.1-0.1,2.2,0,3.2c0,0.9,0.1,1.7,0.2,2.6c0.1,0.8-0.2,1.6-0.6,2.3c-1.1,1.7-2.5,3.1-4.1,4.3
		c-0.1,0.1-0.2,0.1-0.3,0.1c-1.3-0.3-2.5-0.6-3.4-1.6c-0.8-0.7-1.1-1.7-1.2-2.8c0-0.3-0.1-0.5-0.2-0.7c-0.6-1.3-0.9-2.7-1.2-4.1
		c-0.1-0.8-0.2-1.6,0.1-2.3c0.1-0.2-0.1-0.4-0.2-0.5c-1.1-1.7-2.1-3.5-2.8-5.4c-0.2-0.5-0.3-0.9-0.4-1.4c-0.1-0.4,0-0.5,0.5-0.5
		c1.4-0.2,2.6-0.5,4-0.7c0.4-0.1,0.6-0.4,0.9-0.5c0.3-0.1,0.5-0.3,0.7-0.4c1.1-0.3,2.2-0.6,3.2-0.9c0.3-0.1,0.5-0.2,0.6-0.5
		s0.6-0.5,1.1-0.7V87c-0.6,0-1.3,0-1.9,0c-0.1,0-0.2,0.1-0.2,0.1c-0.5,0.9-1.4,1.1-2.3,1.3C254.5,88.7,253.7,88.7,252.8,88.8"/>
	<path class="st0" d="M215.3,95.6v0.5c0.4,0,0.7,0,1.1,0.1c0.3,0.1,0.6,0.3,0.7,0.5c0.2,0.4-0.1,0.8-0.5,1c-0.4,0.2-0.7,0.2-1.1,0.3
		c-0.1,0-0.2,0.1-0.3,0.2c0.1,0.1,0.2,0.2,0.3,0.2c1.9,0.2,3.9,0.5,5.8-0.2c0.6-0.2,1.2-0.5,1.7-0.9c0.4-0.2,0.7-0.5,1.2-0.7
		c0.2-0.6,0.2-0.7,0.8-0.6c0.2,1.4,0.1,2.9-0.8,4.1c-0.4,0.5-0.6,1.1-0.7,1.8c-0.3,1.9-1.4,3.2-2.9,4.3c-1.8,1.5-3.9,2.6-6,3.6
		c-0.5,0.3-1.3,0.2-1.8,0.4c-1,0.3-1.9,0.6-2.9,0.9c-0.2,0.1-0.4,0.1-0.6,0.2c0-0.5,0-1,0-1.4c0-0.1,0.1-0.2,0.2-0.3
		c0.2-0.1,0.3-0.3,0.5-0.4c2.2-1.8,2.2-1.8,3.1-5.1c0.5-1.7,0.3-3.3-0.1-5c-0.1-0.6-0.2-1.4-0.4-2.2c0.3,0,0.5,0,0.7,0
		c0.1,0,0.2-0.1,0.3-0.2c-0.1-0.1-0.2-0.1-0.2-0.2c0,0,0,0-0.1,0c-1.4-0.3-1.4-0.5-1.2-1.9c0.2-1.1,0.5-2.1,0.9-3.1
		c0.1-0.4,0.4-0.6,0.5-0.9c0.3-0.4,0.6-0.5,1.1-0.4c0.7,0.1,1.4,0,2.3,0c-0.6-1.1-0.1-2.4,1.4-2.5c0.2,0,0.5,0.1,0.5-0.4h-5
		c0.1,0.3,0.2,0.6,0.3,0.8c0.2,0.3,0.1,0.5-0.2,0.6c-0.3,0.2-0.4,0.1-0.5-0.2c-0.3-0.6-0.6-1.2-0.9-1.8c-0.3-0.7-0.1-1.4,0-2.1
		c0.1-0.6,0.2-1.4,0.4-2c0.2-0.7-0.3-1.3-0.4-1.9c-0.1-1.2-0.3-2.3-0.5-3.4c0-0.3-0.2-0.5-0.4-0.7c-0.4-0.5-0.9-0.8-1.3-1.3
		c-0.2-0.2-0.3-0.5-0.3-0.7c0-0.1,0.3-0.2,0.5-0.3c1.1-0.3,2.3-0.5,3.3-0.7c0.6-0.2,1.3,0,1.8,0.4c0.7,0.5,1.4,1.2,2,1.7
		c0.2,0.2,0.4,0.3,0.5,0.3c1.4,0.1,2.3,0.8,3,2c0.1,0.2,0.2,0.5,0.3,0.6c0.3,0.6,0.3,1.4,1.1,1.6c0.5,0.9,1,1.8,1.3,2.7
		c0.6,2.2,1.2,4.3,1.6,6.5c0.2,1,0,2.1-0.5,3.1c-0.4,0.6-0.9,1-1.6,1c-0.9,0-1.3,0.4-1.4,1.3c-0.1,0.3-0.2,0.3-0.5,0.4
		c-2,0.3-4.1,0.4-6,0.3C215.5,95.6,215.4,95.6,215.3,95.6"/>
	<path class="st0" d="M51.8,106.2c0.9,0.6,1.8,1.2,2.6,1.7c0.3,0.2,0.4,0.4,0.3,0.6c0,0.1-0.1,0.3-0.2,0.4c-0.5,0.5-0.9,0.9-1.4,1.4
		c-0.1,0.1-0.4,0.2-0.5,0.2c-1.1-0.4-2.1-0.1-3.1,0.1c-1,0.3-1.9,0.3-2.8-0.1c-0.7-0.3-1.4-0.2-2,0.1c-1,0.4-1.9,0.3-2.7-0.4
		c-0.8-0.6-1.7-0.5-2.6-0.4c-0.6,0.1-1.2,0.1-1.7-0.2c-0.1-0.4,0-0.6,0.3-0.9c1.3-1.1,1.9-2.6,2-4.2c0.1-1.1,0.1-2.2,0.1-3.2
		c0-1,0.6-2,1.6-2.3c0.1,0,0.1-0.1,0.4-0.2c-0.5-0.3-0.8-0.5-1.2-0.6c-0.5-0.2-0.5-0.5-0.4-0.9c0,0,0-0.1,0.1-0.1
		c0.6-0.8,0.5-1.7,0.2-2.6c-0.3-0.8-0.6-1.5-1.1-2.3c0,0.1,0,0,0.1-0.1c0.7-0.6,0.8-1.4,0.6-2.3c-0.2-1.7-0.4-3.4-0.5-5.1
		c0-0.2,0-0.5,0-0.5c0.8-0.5,1.4-1.1,2.3-1.5c0.2-0.1,0.5-0.1,0.8-0.2c-0.2,0.4-0.3,0.6-0.5,1h2.1c0.5,0,1.1,0,1.6,0
		c0.5,0,0.9-0.1,1.4-0.5c0.8-0.6,1.8-0.7,2.8-0.7c0.5,0,0.7-0.1,0.9-0.5c0.3-0.7,0.3-0.6,1.2-0.6c0,0.5,0.1,1-0.4,1.4
		c-0.1,0.1-0.1,0.5-0.1,0.6c0.1,0.8,0.2,1.6,0.4,2.4c0.2,0.9,0,1.6-0.3,2.4c-0.2,0.5-0.2,0.9,0,1.4c0.1,0.2,0,0.5-0.2,0.7
		c-0.3,0.5-0.3,0.9-0.2,1.4c0.1,0.5,0.1,1.2,0.1,1.7c-0.1,1.2-0.3,2.3-0.2,3.4c0,0.9,0.3,1.9,0.4,2.8c0.2,0.9,0.4,1.8,0.5,2.7
		c0,0.7-0.1,1.4-0.2,2.3C51.9,105.1,51.9,105.7,51.8,106.2"/>
	<path class="st0" d="M173.9,108.9c0.2-0.1,0.4-0.2,0.5-0.3c0.3-0.2,0.5-0.4,0.8-0.2c0.4,0.3,0.5,0.5,0.5,1c-0.4,1.3-0.5,1.4-1.7,1
		c-0.4-0.1-0.7-0.4-1.2-0.5c-0.1-0.1-0.3-0.1-0.5,0c-0.7,0.1-1.5,0.2-2.3,0.3c-0.2,0-0.4-0.1-0.5-0.1c-2.1-1.3-4.1-2.6-6.2-3.9
		l-0.1-0.1c0.5-0.5,0-0.9,0-1.4c1.4,0,2.9,0,4.2,0c0.8,0,1.3-0.5,1.9-0.9c0.1-0.1,0.1-0.4,0.1-0.5c-0.5-0.2-0.8,0-1.1,0.3
		c-1.1,0.7-3.2-0.2-3.4-1.4h-1.4c-0.1,0.3-0.2,0.5-0.4,0.7c-0.2,0.1-0.5,0.1-0.7,0.1c-0.4,0.1-0.5-0.2-0.7-0.5
		c-0.4-0.9-0.8-1.7-1.2-2.6c-0.2-0.5-0.3-0.8-0.5-1.4c0.7-0.2,1.2-0.7,1.6-1.3c0.5-0.6,0.5-1.3,0.2-2c1-0.2,2.3-0.1,2.4-1.5
		c1.2,0,2.3-0.3,3.1-1.1c0.6-0.6,1.4-0.8,2.2-0.7c0.2,0,0.5,0,0.8,0c-0.2-0.5-0.3-1-0.4-1.5c-1.3,0-2.4,0-3.5,0.5
		c-0.5,0.2-0.8,0.5-1.2,0.8c-0.1,0.1-0.3,0.2-0.4,0.2c-0.9,0.2-1.6,0.5-2.3,1.2c-0.4,0.4-0.7,0.9-1.4,0.5c0.1,0.5,0.2,1.1,0.3,1.5
		c-1,0.1-1.2,0.1-1.3-0.8c-0.3-1.7-0.5-3.5-0.6-5.2c-0.1-1.3,0.6-2.3,1.4-3.2c0.4-0.5,0.8-0.8,1.2-1.2c0.2-0.2,0.3-0.5,0.3-0.6
		c0-0.7-0.2-1.5-0.3-2.3c0.9-0.2,1.6-0.8,2.3-1.5c0.7-0.8,1.4-1.6,2.2-2.4c0.2-0.2,0.4-0.4,0.6-0.5c0.6-0.3,1.3-0.5,1.9-0.6
		c0.5-0.1,0.5-0.4,0.4-0.7c-0.2,0-0.3,0-0.5-0.1c0.1-0.2,0.1-0.4,0.2-0.5c0.4-0.6,1.3-1.1,2.1-0.8c1.1,0.4,2.1-0.1,3-0.7
		c0.2-0.1,0.3-0.2,0.5-0.3c0.4,0.3,0.5,0.5,0.6,1.1c0.2,1.4-0.3,2.3-1.4,3.2c-0.1,0.1-0.2,0.2-0.2,0.2c-1.3,1.3-1.3,1.3-1.3,3
		c0,0.8-0.2,1.6-0.1,2.4c0.1,0.7,0.3,1.4,0.5,2.3c0,0.3,0,0.5-0.1,0.8c-0.5,1.4-0.9,2.7-1.3,4.1c-0.1,0.3,0,0.6,0.1,1
		c0.2,0.6,0.4,1.3,0.6,1.9c0.5,1.2,0.5,2.3,0.4,3.4s0,2.3,0.2,3.5c0.1,0.5,0.2,1,0.2,1.5c0,0.4-0.1,0.7-0.2,1.1
		c-0.2,0.5-0.5,1.2-0.5,1.7s0.5,1,0.8,1.5c0.5,0.8,0.8,1.6,0.8,2.5C173.8,108.7,173.9,108.8,173.9,108.9"/>
	<path class="st0" d="M204.9,79.5h0.5c0,1.1,0,2.2,0,3.2c0,0.7-0.1,1.4-0.4,2.1c-0.5,1.3-0.6,2.5-0.3,3.9c0.2,0.6,0.3,1.3,0.4,1.9
		c0,0.4-0.2,0.8-0.3,1.2c-0.2,0.5-0.4,0.9,0.2,1.3c0.1,0.1,0.1,0.4,0.1,0.5c-0.2,3.2-0.4,6.3-0.5,9.5c-0.1,0.7,0.1,1.4,0.5,1.9
		c1,1.2,1.9,2.4,2.8,3.7c0.2,0.3,0.3,0.5,0.2,0.8c-0.2,0.5-0.3,0.9-0.5,1.4c-0.1,0.2-0.5,0.4-0.6,0.3c-3.1-0.9-6-1.9-8.6-3.9
		c-1.3-1-2.3-2.2-2.7-3.7c-0.1-0.3-0.1-0.6-0.2-0.9c0-0.1,0-0.3,0-0.3c-0.5-0.5-0.1-0.7,0.2-1.1c0.2-0.2,0.4-0.4,0.5-0.7
		c-0.5-0.1-0.7-0.1-1-0.2c-1-0.3-1.6-1-2-1.9c-0.4-0.7-0.5-1.6-1.3-2.2c-0.2-0.1-0.1-0.6,0-0.9c0.7-1.2,0.8-2.3,0.6-3.7
		c-0.1-0.5-0.1-0.8-0.2-1.3c0-0.2,0-0.3,0-0.5c0.7-1.8,1-3.7,1.4-5.6c0.1-0.4,0.3-0.5,0.6-0.5c1.4-0.3,2.8-0.5,4.2-0.9
		c0.5-0.1,1-0.5,1.5-0.7c0.2-0.1,0.4-0.1,0.5-0.2c0.6-0.1,1.4-0.2,2-0.4c0.5-0.1,0.9-0.5,1-1c0-0.1,0.2-0.2,0.3-0.3
		C204.6,80.5,204.8,80.3,204.9,79.5"/>
	<path class="st0" d="M63.8,57.5c0.4-0.1,0.5-0.1,0.9-0.2c0,0.1,0.1,0.4,0,0.5c-0.2,0.2-0.4,0.4-0.5,0.4c-1.2-0.1-2.3-0.2-3.6-0.4
		c-0.1,0-0.2,0-0.3,0c-1,0.7-2.1,0.5-3.2,0.6c-0.2,0-0.5-0.3-0.5-0.5c0-0.5,0.1-0.8,0.4-1.1c0.2,0.2,0.4,0.3,0.5,0.4
		c0.1-0.2,0.3-0.5,0.3-0.6c-0.2-1.1,0-2.3,0.2-3.3c1,0,1,0,1.1-1.1c0.3-0.1,0.5-0.1,0.8-0.2v-0.1c-0.4,0-0.8-0.1-1.2-0.1
		c-0.7-0.1-0.8-0.3-0.7-1c0.1-0.3,0.1-0.6,0.2-1.1c-0.6,0-1.3,0-1.8,0c-0.6,0-0.8-0.3-0.9-0.9c0-0.3,0.1-0.5,0.4-0.5
		c0.3-0.1,0.5-0.2,0.8-0.2c0.3,0,0.5,0,0.8,0c0.1-0.3,0.1-0.5,0.2-0.7c0.1,0,0.1,0,0.2,0c0.2,0.4,0.4,0.7,0.5,1.2
		c0.4-0.3,0.5-0.7,0.4-1.1c-0.1-0.4-0.3-0.7-0.7-0.6c0.1-0.8,0.2-1.7-0.2-2.5c-0.2-0.5-0.2-0.9,0.3-1.3c0.4-0.4,0.3-0.7,0-1
		c-0.5-0.5-1.1-1-1.7-1.6c0.2-0.1,0.3-0.2,0.5-0.2c0.9-0.3,1.9-0.4,2.9-0.1c0.4,0.1,0.8,0.1,1.3,0.1c0.3,0,0.5-0.1,0.7,0
		c1,0.5,1.9,0,2.8-0.1c0.2,0,0.5,0,0.5,0.1c0.1,0.2,0.2,0.5,0,0.7c-0.2,0.3-0.5,0.5-0.8,0.7c-0.4,0.2-0.5,0.5-0.5,0.7
		c0,0.5,0,1.1,0.1,1.6c0.2,1-0.1,2-0.1,3c0,0.3,0,0.5,0,0.7c0.2,0.5,0.3,1.1,0.1,1.6c-0.2,0.6-0.1,1.2,0.1,1.8
		c0,0.1,0.1,0.3,0.1,0.4c-0.4,0.7,0,1.5-0.3,2.3c0,0.1,0,0.3,0,0.4c0.2,0.4,0.2,0.7,0.1,1.1C63.8,55.9,63.8,56.7,63.8,57.5 M59,46.8
		c0.1,0,0.1,0,0.2,0.1c0.2-0.4,0.4-0.7,0.4-1c0-0.2-0.3-0.5-0.5-0.6C58.5,45.8,58.9,46.2,59,46.8"/>
	<path class="st0" d="M73.4,40.4c1,0.9,1,1.6,0.5,2.5c-0.2,0.3-0.1,0.7-0.1,1c0,0.5,0.1,1,0.1,1.5c0,0.5-0.4,0.9-0.7,1.1
		c-0.4,0.2-0.7,0.5-1.1,0.6c-0.1,0.1-0.3,0.2-0.4,0.2c-0.6,0-1.2,0.2-1.5,0.6c-0.1,0.1-0.4,0.1-0.5,0.2c-0.2,0-0.4,0.1-0.6,0.1
		c0.3,0.5,0.6,0.8,0.9,1.2c0.2-0.5,0.6-0.6,1.1-0.7c0.1,0,0.3,0,0.3-0.1c0.2-0.5,0.6-0.5,1-0.5c0.4-0.1,0.6-0.4,1-0.5
		c0.2-0.1,0.4-0.2,0.5-0.4c0.4,0.9,1,1.6,0.5,2.6c-0.3,0.6-0.5,1.4-0.6,2.1c-0.2,0.6-0.2,1.3,0,2c0.1,0.5,0,1,0.1,1.4
		c0,0.5,0.1,1.2,0.1,1.7c0,1.2,0,1.2-1.2,1.4c-0.4,0.1-0.7,0.2-1.1,0.2c-0.5-0.1-0.8-0.2-1.2-0.5c-0.5-0.3-0.8-0.3-1.3-0.1
		c-0.4,0.2-0.6,0.3-1,0.4c-0.5,0.2-1.3-0.4-1.3-0.9c0-0.2,0.2-0.4,0.4-0.5c0.2-0.1,0.4-0.2,0.5-0.2c0.2-0.7,0.4-1.4,0.5-2
		c0-0.3-0.1-0.5-0.2-0.7c-0.2-0.5-0.2-0.9-0.1-1.4c0.1-1,0.1-2,0-3c-0.1-0.7-0.2-1.5,0-2.3c0.1-0.4,0.1-0.8,0-1.2
		c-0.3-0.9-0.1-1.8,0.1-2.7c0.1-0.5,0-0.8-0.3-1.1c-0.5-0.5-0.8-0.8-1.3-1.3c1-0.6,1.9-0.8,3-1c0.9-0.2,1.6,0.2,2.4,0.4
		C72.3,40.8,72.9,41.1,73.4,40.4"/>
	<path class="st0" d="M89.4,88.6h1.4l0.1-0.1c-0.1-0.1-0.2-0.2-0.4-0.3c-0.8-0.1-1.2-0.9-0.7-1.6c0.1-0.2,0.3-0.4,0.4-0.5
		c0.1-0.2,0.1-0.5,0-0.7c-0.9-1.1-0.5-1.4,0.5-2.2c1,1.5,1.8,3.2,2.3,5c0.2,1,0.3,1.9,0.1,2.9c-0.4,2-0.1,3.9,0.5,5.8
		c0.3,0.8,0.1,1.5,0,2.3c-0.2,1.4-0.5,2.6-0.6,3.9c0,0.2-0.1,0.4,0,0.5c0.5,1,0.8,2.1,0.9,3.2c0.5,0.1,1.2,0,1.7,0.2
		c0.9,0.2,1.3,0.7,1.3,1.6c0,0.5,0,0.9-0.1,1.3c-0.2,0.6-0.5,0.9-1.2,0.9c-1.5-0.1-3.2-0.2-4.7-0.3c-0.4,0-0.7,0-1.1,0.1
		c-1.2,0.3-2.2,0-3.2-0.5c-0.2-0.1-0.4-0.5-0.3-0.6s0.4-0.5,0.6-0.5c0.5,0,0.6-0.2,0.8-0.5c0.4-0.6,0.8-1.1,1.4-1.3
		c0-0.4-0.1-0.6-0.1-1c0.2-1.5,0.5-3,1.1-4.4c0.2-0.5,0.4-0.8,0.6-1.2c0.5-0.8,0.7-1.6,0.5-2.5c-0.5-1.9-1-3.9-1.5-5.8
		c0-0.1-0.1-0.2-0.1-0.4C89.4,90.8,89.4,89.8,89.4,88.6"/>
	<path class="st0" d="M48.3,40.5c0.1,0,0.2-0.2,0.4-0.2c0.3-0.1,0.6-0.1,0.9-0.1c0.4-0.1,0.8-0.2,1.2-0.2c1.4,0,3,0,4.4,0
		c0.4,0,0.6,0.2,0.7,0.5c0.1,0.2-0.2,0.5-0.3,0.7c-0.1,0.2-0.3,0.4-0.5,0.5c-0.7,0.5-0.7,1.2-0.6,2c0.1,0.9,0.2,1.8,0.2,2.8
		c0,0.3-0.1,0.5-0.2,0.8c-0.3,0.5-0.4,1-0.1,1.4s0.3,0.8,0.2,1.3c-0.3,0.8,0.1,1.6,0.2,2.4c0,0.2-0.1,0.4-0.1,0.5
		c-0.1,0.4-0.2,0.6-0.2,1c0,0.4,0.1,0.7,0.2,1.2c0.1,0.5,0.2,0.8-0.1,1.2c-0.1,0.2-0.1,0.3,0.2,0.5c0.5,0.4,0.9,0.8,1.4,1.3
		c0.1,0.1,0.1,0.3,0,0.4c-0.3,0.2-0.5,0.4-0.8,0.4c-0.7-0.1-1.4-0.2-2.2-0.5c-1-0.3-1.9-0.2-2.8,0c-0.7,0.1-1.4,0.3-2.1,0.4
		c-0.5,0.1-0.5-0.4-0.7-0.6c-0.1-0.2-0.2-0.4,0.1-0.6c0.4-0.3,0.7-0.5,0.8-0.9c0.1-0.6,0.1-1.3,0-1.9c-0.1-0.5-0.1-0.8,0-1.3
		c0.3-1.1,0.5-2.2,0.6-3.2c0.1-0.6,0.1-1.3,0.2-1.8c0.3-0.3,0.6-0.5,0.9-0.9c0.1-0.2,0.1-0.7-0.1-0.8c-0.4-0.2-0.5,0.2-0.6,0.5
		c-0.1,0.1-0.1,0.3-0.2,0.4c-0.7,0.1-0.8,0-0.7-0.7c0.1-0.4,0.3-0.8-0.1-1.3c-0.1-0.1,0-0.3,0-0.4c0-0.1,0.1-0.3,0.1-0.4
		c0.5-0.8,0.5-1.7,0-2.5c-0.1-0.2-0.3-0.5,0.1-0.6C48.5,41.3,48.3,40.8,48.3,40.5 M51,42.9c0.6-0.3,1.3-0.6,1.9-0.9
		c0,0,0.1,0,0.1-0.1c0.2-0.5,0.6-0.5,1-0.5c0.4-0.1,0.6-0.3,0.9-0.5c0-0.1-0.1-0.1-0.1-0.2c-0.8,0-1.5-0.1-2.3-0.1
		c-0.9-0.1-1.5,0.4-2.1,1C50.7,42.1,50.9,42.5,51,42.9 M54.2,51.4c-0.8,0.3-1.5,0.5-2.3,0.7c-0.1,0-0.1,0.1-0.1,0.1
		c-0.2,0.2-0.5,0.3-0.6,0.5c-0.1,0.1-0.3,0.1-0.4,0.2c-0.1,0.5-0.5,0.6-0.8,0.7c-0.1,0-0.2,0.3-0.2,0.4c0.3,0.5,0.9,0.5,1.2,0.2
		c0.3-0.5,0.7-0.5,1.2-0.7c0.2-0.1,0.3-0.2,0.5-0.4c0.3-0.1,0.5-0.3,0.7-0.4C54.3,52.4,54.4,52.3,54.2,51.4 M50.2,44.5
		c-0.1,0-0.1,0-0.2,0c0.1,0.5,0.1,1,0.2,1.4c0,0.1,0.1,0.1,0.2,0.1c0.1,0,0.1-0.1,0.2-0.1C50.9,45.5,50.7,45,50.2,44.5 M49.5,55.1
		c0.4-0.3,0.5-0.5,0.2-0.9C49.1,54.7,49.1,54.8,49.5,55.1"/>
	<path class="st0" d="M40.6,56.2c0.5,0.3,0.8,0.5,1.3,0.8c0.3,0.2,0.3,0.4,0.1,0.5c-0.4,0.4-0.7,0.9-1.4,0.6c-0.1,0-0.3,0-0.4,0
		c-0.7,0.2-1.4,0.3-2.2,0c-0.3-0.1-0.7,0.1-1.1,0.2c-0.3,0-0.5,0-0.7-0.1c-0.5-0.3-1.1-0.5-1.6-0.3c-0.1,0-0.3,0-0.5,0
		c-0.1,0-0.3-0.1-0.4-0.2c0-0.1,0.1-0.3,0.2-0.3c0.7-0.6,0.9-1.4,1-2.4c0-0.4,0-0.7,0-1c-0.1-0.7,0.3-1.2,0.9-1.4
		c0-0.1,0-0.1-0.1-0.1c-0.6-0.2-0.6-0.5-0.5-1.1c0.1-0.4-0.2-0.9-0.3-1.4c-0.1-0.2-0.2-0.5-0.4-0.6c0.6-0.5,0.4-1.2,0.4-1.8
		s-0.1-1.3-0.2-1.9c0-0.2,0.2-0.4,0.3-0.5c0.3-0.3,0.6-0.5,1.1-0.7c0,0.3,0,0.4-0.1,0.5h0.1c0.5,0,1.2,0,1.7,0c0.1,0,0.3,0,0.4-0.1
		c0.5-0.5,1.1-0.5,1.7-0.5c0.1,0,0.3-0.2,0.4-0.3c0.2-0.1,0.3-0.3,0.5-0.5c0.1,0.2,0.1,0.3,0.1,0.3c-0.5,0.7-0.1,1.5-0.1,2.3
		c0,0.3,0,0.5-0.1,0.8c0,0.3,0,0.6-0.1,0.9v0.1c-0.4,0.8,0,1.8-0.2,2.6c-0.2,0.9,0,1.7,0.2,2.6c0.2,0.9,0.1,1.8-0.1,2.7
		C40.6,56,40.6,56.1,40.6,56.2"/>
	<path class="st0" d="M180.5,79.3c0-0.2-0.1-0.4-0.1-0.5c-0.2-0.9-0.7-1.4-1.6-1.5c-0.7,0-1.1-0.5-1.5-0.9c-0.2-0.2-0.2-0.5,0.2-0.7
		c0.8-0.5,1.6-1,2.5-1.5c1,0.5,2.2,1.2,3.3,1.8c0.4,0.2,0.6,0.3,1,0.2c0.5-0.2,0.8-0.2,1.3-0.4c0.6-0.3,1.1-0.6,1.2-1.4
		c0.8-0.1,1.4,0.4,1.4,1.2c0,0.3,0,0.6-0.1,0.9c-0.3,0.8-0.1,1.6,0,2.4c0.1,1.2,0.3,2.3,0.4,3.4c0,0.6-0.1,1.3-0.2,1.9
		c-0.1,0.7,0.1,1.4,0.3,2.1c0.5,1.4-0.3,2.4-1.8,2.7c-0.2-0.6-0.7-0.9-1.4-1.2c-0.2-0.1-0.3-0.3-0.3-0.5c-0.5-1.8-0.8-3.6-1.7-5.3
		c-0.3-0.5-0.5-0.9-0.8-1.4C182.2,79.9,181.5,79.4,180.5,79.3"/>
	<path class="st0" d="M114.4,92.8c-1.2-0.6-1.8-2-1.5-3.2c0.2-0.8,0.4-1.6,0.5-2.4c0-0.1,0-0.3,0-0.5c-0.3-1-0.5-2-0.7-3
		c-0.2-0.6-0.1-1.2,0.2-1.6c0.5-0.8,0.3-1.5-0.5-2.1c-0.9-0.7-1.2-1.7-1.2-2.8c0-0.4-0.2-0.8-0.3-1.2c-0.1-0.2-0.3-0.4-0.5-0.5
		c-0.7-0.5-0.7-0.4-0.6-1.2c0.9-0.2,1.8-0.5,2.7-0.6c0.1,0,0.3,0,0.5,0c0.9,0.4,1.8,0.5,2.7,0.5c0.3,0,0.5-0.1,0.7-0.3
		c0.3-0.2,0.5-0.4,0.7-0.3c0.6,0.2,1.3,0.3,1.9,0.5c0.9,0.4,0.9,1.4,0.2,2c-0.9,0.7-1.7,1.4-2.5,2.2c-0.7,0.6-1.1,1.4-1,2.4
		c0.1,1.2,0.2,2.3,0.3,3.4c0,0.8-0.1,1.5-0.2,2.3c-0.3,1.7-0.6,3.5-1,5.2C114.8,92.1,114.5,92.5,114.4,92.8"/>
	<path class="st0" d="M31.4,79.6c-0.5-0.1-0.9-0.1-0.9-0.6c0.1-0.6,0.7-0.5,1.2-0.6c0-0.2,0-0.5,0-0.6c0-0.1-0.2-0.3-0.3-0.3
		c-0.8-0.2-1.3-0.6-1.4-1.4c-0.2-0.7-0.3-1.4-0.4-2.2c0-0.1,0.1-0.3,0.3-0.4c0.6-0.5,1.3-0.5,2-0.5c1,0.1,2,0.2,3,0.2
		c0.3,0,0.5,0,0.7-0.1c0.5-0.2,0.9-0.1,1.3,0.2c0.8,0.5,1.4,1.3,1.7,2.3c0.1,0.4,0,0.6-0.4,0.8c-1.5,0.7-2.3,2-2.5,3.6
		c0,0.3-0.3,0.5-0.4,0.9c-0.3,0.7-0.5,1.4-0.7,2.2c-0.2,0.8-0.3,1.7-0.5,2.5c-0.1,0.5-1,1.4-1.4,1.4c-0.9,0.1-1.4-0.1-1.6-1
		c-0.3-0.9-0.5-1.8-0.5-2.7c-0.1-0.5,0-1.2,0-1.7c0-0.5,0.1-0.7,0.6-0.8c0.1,0,0.3-0.2,0.3-0.3C31.4,80.1,31.4,79.8,31.4,79.6"/>
	<path class="st0" d="M29.5,37.9c0-0.3,0-0.5,0-0.7c0-0.1,0.2-0.3,0.3-0.3c0.3-0.2,0.5-0.3,0.7-0.4c0.1-0.1,0.2-0.1,0.3-0.1
		c0.5,0,0.9,0.1,1.4,0.2c0,0.3,0,0.5-0.1,0.6h3.7c0.2-0.3,0.3-0.5,0.4-0.6c0.5-0.1,0.9-0.2,1.3,0c0.5,0.3,0.9,0.2,1.3,0.1
		c0.1,0,0.3-0.1,0.3,0c0.3,0.4,0.6,0.1,0.9,0.1c0.2-0.1,0.5-0.1,0.6-0.1c0.9,0,1.8,0,2.7,0c0.8,0,1.5-0.2,2.3-0.3
		c0.3,0,0.6,0.1,0.9,0.2c0.3,0.1,0.5,0.1,0.8,0.1h0.7h1.3c0.2-0.4,1.1-0.5,1.5-0.1c-0.5,0.1-0.9,0.1-1.4,0.2
		c0.2,0.2,0.3,0.4,0.4,0.5c0.6,0.3,1.2,0.8,1.9,0.4c0.2-0.1,0.5-0.1,0.7-0.2c1.3-0.3,2.5-0.5,3.8-0.8c0.5-0.1,1.1-0.2,1.5-0.3
		c0.1,0,0.2,0,0.2,0.1c0.2,0.5,0.5,0.3,0.8,0.3c0.9,0,1.9-0.1,2.8-0.1c0.2,0,0.5-0.3,0.6-0.3c1.2-0.1,1.4,0.1,1.5,1.2
		c0.6,0,1.3-0.1,1.6-0.6c0.4-0.5,0.9-0.3,1.4-0.4c0.1,0,0.2,0.3,0.3,0.4c1.6-0.5,3.3,0,5-0.2c0.5,0,1-0.1,1.5-0.1
		c0.9,0,1.8,0,2.6-0.1c1.2-0.1,2.3-0.3,3.4-0.4c0.7,0,1.5,0,2.3,0.1c0.2,0,0.3,0.3,0.4,0.5c0.1,0.2,0,0.5,0,0.6
		c0,0.4-0.1,0.5-0.5,0.5c0.4,0,0.1,0.1-0.3,0.1c0.2-0.3,0.2-0.5,0.3-0.5c0.5-0.1,0.4-0.5,0.4-0.9c-0.4,0.2-0.6,0.3-1,0.4
		c-0.6,0.3-1.4,0.6-2.1,0.5c-0.2,0-0.4,0-0.5,0.1c-0.4,0.4-0.8,0.2-1.3,0.2c-0.9,0-1.8-0.2-2.7,0.2c-0.2,0.1-0.4,0.1-0.5,0
		c-0.8-0.3-1.6-0.2-2.4-0.1c-0.5,0.1-1.1,0.3-1.6-0.1c-0.1-0.1-0.4,0-0.5,0c-0.3,0-0.5,0.1-0.7,0.1c-0.5,0-1.1,0-1.5,0
		c-2.1,0-4.1,0-6.2,0c-0.5,0-1.1,0-1.5,0c-0.7,0-1.5,0-2.3,0c-0.1,0-0.3-0.1-0.4,0C55.7,38.4,55,38,54.3,38c-0.2,0-0.5,0-0.6,0
		c-0.4,0-0.7,0-1.1,0s-0.6,0-1,0c-1,0-2,0-3,0c-0.8,0-1.7,0-2.5,0c-1.3,0-2.6,0.2-3.9,0.2c-1.2,0-2.3-0.3-3.4,0c-0.1,0-0.3,0-0.4,0
		c-0.7-0.2-1.5-0.2-2.3-0.1c-0.3,0-0.5,0-0.8-0.1c-0.6-0.2-1.3-0.1-1.9,0c-0.5,0-1.2,0-1.7,0C31,38,30.2,37.9,29.5,37.9"/>
	<path class="st0" d="M272.3,73.6c0.2,0.2,0.4,0.4,0.5,0.5c0.5,0.5,0.5,0.7,0,1.1c-0.8,0.7-1.7,1.4-2.6,1.9
		c-0.5,0.4-0.9,0.7-1.1,1.3c-1.1,3-2.3,5.9-2.9,9.1c-0.2,0.9-0.3,1.9-0.5,2.8c0,0.2-0.1,0.5-0.3,0.6c-0.4,0.5-0.8,1-1.3,1.5
		c-0.3-0.5-0.5-1-0.7-1.4c-0.3-0.6-0.6-1.4-0.9-2c-0.3-0.5-0.1-0.7,0.5-0.7c0.5,0,0.9,0,1.4,0c0.1-0.8,0.2-1.6,0.4-2.4
		c0-0.3,0-0.4-0.3-0.5c-0.3,0-0.5-0.2-0.8-0.2c0-1.3,0.9-2.3,0.3-3.5c0.1,0,0.1-0.1,0.1-0.1c1.7-0.1,1.8-1.4,1.5-2.6
		c-0.2-0.8-0.7-1.5-1.4-1.9c-0.7-0.5-1.5-0.7-2.3-1.1c-0.1-0.1-0.4-0.2-0.4-0.3c0-0.2,0.1-0.4,0.3-0.5c1-0.5,2-1.1,3.2-0.7
		c0.5,0.1,0.9,0.1,1.4,0c0.5-0.1,0.9-0.1,1.4,0.1c1.4,0.6,2.5,0.3,3.7-0.4C271.7,74,272,73.8,272.3,73.6"/>
	<path class="st0" d="M40.9,76.4c1.5-0.5,3.1-1,4.5-1.5c0.5-0.2,1-0.4,1.4-0.6c1.2-0.6,2.4-0.6,3.7-0.7c0.9-0.1,1.6,0.6,1.6,1.5
		c-0.1,1-0.2,2-0.4,3c-0.1,0.7-0.5,1.4-1.4,1.4c-0.1,0-0.2,0.1-0.2,0.1c-1.1,1-2.4,1.3-3.9,1.4c-1.4,0-2.8,0.1-4.1-0.3
		c-0.9-0.3-1-0.5-1.1-1.3C41.1,78.3,41,77.3,40.9,76.4"/>
	<path class="st0" d="M59.6,87c-0.5,0.1-0.7-0.2-1-0.5c-0.7-1.1-0.6-2.2-0.5-3.3c0.2-1.2,0-2.3-0.5-3.3c-0.5-0.7-0.9-1.4-1.4-2.2
		c-0.1-0.2-0.3-0.3-0.4-0.5c-0.4-0.6-0.4-0.9,0.3-1.3c0.8-0.5,1.6-1,2.3-1.5c0.5-0.5,1.3-0.5,1.9-0.6c0.1,0,0.3,0.1,0.4,0.2
		c0.6,1.3,1.1,2.6,1.1,4.1c0,0.5-0.2,1.1-0.3,1.5c-0.3,0.8-0.4,1.7-0.2,2.5c0.4,1.6-0.3,3-0.8,4.4C60.4,86.8,60.1,87,59.6,87"/>
	<path class="st0" d="M51,62.2c-0.1-0.4-0.2-0.5-0.2-0.9c0,0,0.1-0.2,0.2-0.4c-0.1-0.1-0.2-0.3-0.4-0.4c0.3-0.1,0.5-0.2,0.8,0
		c0.3,0.2,0.8,0.2,1.2,0.2c0.5,0,0.8-0.2,1.3-0.2c0.3,0,0.5,0,0.9,0.1c0,0.1,0.1,0.3,0.2,0.5c0.3-0.3,0.5-0.4,0.9-0.1
		c0.3,0.2,0.6,0.3,0.8-0.2c0-0.1,0.3-0.1,0.4-0.1c0.4,0,0.6,0.2,1,0.2c0.6,0,1.3,0,1.8-0.1c0.2,0,0.5-0.2,0.6-0.2
		c0.5-0.1,0.9-0.1,1.4,0c0.1,0,0.2,0.3,0.2,0.5c0,0.2,0,0.4-0.1,0.7c0.2-0.1,0.5-0.1,0.5-0.2c0.4-0.5,0.9-0.6,1.4-0.7
		c0.5-0.1,1.1,0,1.6-0.1c0.3,0,0.5-0.1,0.7-0.2c0.2,0,0.4,0,0.5,0c0.5,0,0.8,0,1.3,0c0.4,0,0.8,0,0.9,0.5c0,0,0.2,0,0.3,0.1
		c-0.1-0.2-0.1-0.3-0.1-0.5l0.1-0.1c0.2,0,0.3-0.1,0.5-0.1c1.1,0.1,2.3,0.2,3.3,0.2c0.2,0,0.3,0,0.5,0c0.6-0.1,1.3-0.2,1.8-0.2
		c0.1,0,0.3,0,0.4,0.1c0.5,0.3,0.9,0.1,1.4,0.1c0.1,0,0.2,0,0.2,0c0.6,0.4,1.3,0.1,1.9,0.1c0.7-0.1,1.4-0.1,2.1-0.1
		c0.2,0,0.4,0,0.5-0.1c0.4-0.2,0.7,0,0.8,0.4c0,0.1,0,0.1,0,0.2c0,1,0.2,1.3-1.2,1.3c-0.4,0-0.7-0.1-1.1-0.1c-1.8,0-3.7,0.1-5.5,0
		c-0.9,0-1.8-0.1-2.7-0.2c-0.3,0-0.5-0.1-0.8,0c-0.5,0.2-1.2,0.1-1.7,0.1c-0.8-0.1-1.6,0.1-2.5,0c-1.4-0.1-2.8,0.2-4.1,0.2h-0.1
		c-1.4-0.5-2.8,0-4.2-0.3c-0.2,0-0.3,0.1-0.5,0.2c-0.1,0-0.3,0.1-0.4,0c-0.6-0.2-1.3-0.2-1.9-0.1c-0.8,0.1-1.6-0.1-2.4-0.1
		C52.6,62.2,51.8,62.2,51,62.2"/>
	<path class="st0" d="M197,81c-0.5-0.1-1.3-0.3-1.9-0.5c-0.5-0.2-0.5-0.4-0.2-0.8c1-1.2,2.3-2,3.6-2.8c2.3-1.4,4.6-2.6,7-3.5
		c0.4-0.2,0.8-0.3,1.3-0.4c0.4-0.1,0.6,0.1,0.6,0.5c0,0.3-0.1,0.6-0.3,0.8c-0.4,0.5-0.7,1.1-1.2,1.5c-1.6,1.5-3.3,3-5,4.4
		c-0.3,0.3-0.8,0.3-1.2,0.3C198.9,80.8,198,80.9,197,81"/>
	<path class="st0" d="M187.9,100c0.5,0.3,0.7,0.7,0.6,1.3c-0.2,0.9-0.3,1.9-0.5,2.7c-0.3,1-0.9,1.7-1.9,2.2
		c-0.1,0.1-0.3,0.2-0.3,0.3c-0.2,0.6-0.5,1-1.1,1.3c-1.1,0.5-2.2,1.1-3.2,1.5c-0.5,0.3-1.1,0.5-1.4,0.9c-0.2,0.2-0.5,0.4-0.6,0.6
		c-0.5,0.7-1.2,0.6-1.8,0.5c-0.7-0.2-0.9-0.8-1.1-1.5c-0.1-0.4,0-0.5,0.4-0.7c1.8-0.8,3.6-1.7,5.5-2.6c0.3-0.1,0.5-0.3,0.5-0.5
		C184.5,103.7,186.1,101.8,187.9,100"/>
	<path class="st0" d="M30.9,42.4c-0.2-0.2-0.3-0.4-0.4-0.5c-0.5-0.3-1-1.3-0.7-1.7c0.1-0.2,0.5-0.4,0.8-0.4c0.8,0,1.5,0,2.3,0
		c0.5,0,1.4,1,1.2,1.4c0,0.1-0.2,0.2-0.3,0.3c-0.7,0.4-1,0.9-1.2,1.7c-0.2,1-0.5,2-0.7,2.9c-0.1,0.3-0.5,0.5-0.8,0.5
		c-0.4,0.1-0.6-0.2-0.6-0.5c-0.1-0.7-0.2-1.5-0.3-2.3c0-0.1,0.1-0.2,0.2-0.3c0.2-0.2,0.3-0.5,0.1-0.6c-0.1-0.1-0.2-0.2-0.3-0.3
		c0.1-0.1,0.3-0.2,0.4-0.3C30.6,42.4,30.7,42.4,30.9,42.4"/>
	<path class="st0" d="M76.4,41.4c0.1-0.2,0.1-0.4,0.2-0.5c0.3-0.5,0.5-0.6,1-0.6c0.7,0,1.4,0,2.1,0c0.5,0,0.5,0,0.6,0.5
		c0,1.2,0.1,2.4,0.1,3.6c0,0.5-0.7,1.2-1.2,1.1c-0.1,0-0.2-0.1-0.3-0.2c-0.3-0.4-0.5-0.7-0.7-1c-0.1-0.1-0.1-0.2-0.1-0.3
		c0.2-0.5-0.2-0.6-0.5-0.8c-0.4-0.4-0.7-0.7-1.2-1.1c-0.2-0.1-0.5-0.1-0.6-0.1c-0.6,0.1-1-0.1-1.1-0.7c0-0.3,0-0.5,0-0.9
		c0-0.3,0.9-0.7,1.2-0.5C76,40,76,40.1,76,40.2c0,0.2-0.1,0.4-0.2,0.6C75.7,41.3,75.9,41.4,76.4,41.4"/>
	<path class="st0" d="M74.9,58.3c0-0.2,0-0.4,0-0.5c0.2-0.9,0.2-0.9,1.1-0.8c0.1-0.5,0.4-0.6,0.9-0.5c0.1,0,0.4-0.1,0.5-0.2
		c0.5-0.6,0.8-1.4,1.3-2.1c0.4-0.5,0.8-1.1,1.3-1.7c0.5,0.8,0.8,1.6,0.6,2.3c-0.3,0.9-0.2,1.8-0.2,2.7c0,0.6-0.3,0.9-0.9,0.7
		c-1.4-0.4-2.8-0.4-4.2-0.1C75.2,58.3,75.1,58.3,74.9,58.3"/>
	<path class="st0" d="M37.6,43.9c-0.6-0.1-1.2-0.1-1.7-0.2c-0.4-0.1-0.5-0.3-0.5-0.6c0-0.5-0.3-1.1,0-1.4c0.2-0.3,0.9-0.4,1.4-0.5
		c0.5-0.2,1.1-0.5,1.6-0.6c0.5-0.2,1.1-0.3,1.7-0.4c0.5-0.1,0.8,0.4,0.8,0.8c0,0.5-0.1,0.8-0.1,1.3c-0.1,0.9-0.9,1.1-1.5,1.4
		C38.7,43.8,38.1,43.8,37.6,43.9"/>
	<path class="st0" d="M41.8,60.6c0.6,0.1,1.4,0.3,2,0.3c0.3,0,0.5,0,0.7-0.1c0.9-0.3,1.8-0.6,2.7-0.2c0.1,0,0.2,0.1,0.3,0
		c0.5-0.4,0.7,0,1.1,0.2c0.4,0.2,0.8,0.4,1.3,0.4c0.4,0.1,0.4,0.3,0.4,0.5c0,0.3,0.1,0.6-0.4,0.5c-0.4,0-0.8,0-1.2-0.1
		c-0.9-0.4-1.8-0.1-2.6,0c-0.1,0-0.2,0.1-0.4,0.1c-0.9,0-1.7-0.1-2.6-0.1c-0.1,0-0.2,0-0.3,0c-0.5,0.1-0.8,0.1-1.3-0.1
		c-0.5-0.2-1.1,0-1.6,0c-0.2,0-0.5,0-0.5-0.1c-0.1-0.4,0.1-0.5,0.5-0.6c0.5-0.1,0.7-0.2,1-0.6C40.9,60.6,41.5,60.7,41.8,60.6"/>
	<path class="st0" d="M77.4,45.4c0.2,1,0.4,2,0.5,3c0.2,1.1,0.3,2.1,0.4,3.2c0.1,0.6-0.1,1.1-0.6,1.4c-0.1,0.1-0.4,0-0.5-0.1
		c-0.5-0.6-1-1.4-1.5-2.1c-0.2-0.2-0.3-0.5-0.5-0.6c-0.4-0.4-0.5-0.7-0.1-1.1c0.2-0.2,0.5-0.4,0.6-0.5c0.4-0.2,0.5-0.5,0.5-0.9
		c0-0.3,0.2-0.6,0.3-1c0.1-0.3,0.2-0.5,0.3-0.9C76.8,45.4,77,45.3,77.4,45.4"/>
	<path class="st0" d="M39.2,60.5c-0.2,0.5-0.3,1-0.5,1.5c-0.2,0-0.5,0-0.8,0c-0.6,0-1.3,0-1.9,0c-1.3,0-2.4-0.1-3.7-0.1
		c-0.2,0-0.4,0-0.5,0.1c-0.7,0.4-1.4,0.2-2.1,0c-0.2,0-0.4-0.3-0.4-0.4c0-0.2,0.1-0.6,0.3-0.6c0.5-0.2,1-0.3,1.5-0.3
		c0.4,0,0.7,0,1.1,0c0.1,0,0.3,0,0.4,0c0.6,0.2,1.3,0,1.8-0.2c0.1-0.1,0.3-0.1,0.4,0c0.9,0.5,1.8,0.3,2.7,0c0.4-0.1,0.6-0.2,1,0
		C38.8,60.5,39,60.5,39.2,60.5"/>
	<path class="st0" d="M45,40.2c0.4,0.8,0.7,1.7,0.5,2.6c-0.1,0.5-0.2,1.2-0.1,1.7c0.1,0.7-0.2,1.4-0.5,2c-0.2,0.5-0.7,0.5-0.9,0
		c-0.2-0.4-0.4-0.8-0.3-1.2c0.2-1.2-0.1-2.2-0.8-3.1c-0.2-0.2-0.3-0.5-0.5-0.7C43.3,41,43.9,40.2,45,40.2"/>
	<path class="st0" d="M55.6,73.5c0.1,0.5-0.4,0.9-0.8,0.8c-0.1-0.1-0.3-0.3-0.3-0.4c0-0.2,0.2-0.4,0.4-0.4
		C55,73.5,55.3,73.5,55.6,73.5"/>
</g>
</svg>
